<?xml version="1.0" encoding="UTF-8"?>
<svg version="1.1" xmlns="http://www.w3.org/2000/svg" width="236" height="254">
<path d="M0 0 C0.87785156 0.76699219 1.75570312 1.53398438 2.66015625 2.32421875 C3.52769531 3.08089844 4.39523438 3.83757813 5.2890625 4.6171875 C25.57801401 22.61395212 47.65746849 48.84258733 49.82078552 77.44822693 C49.83666214 78.21095413 49.85253876 78.97368134 49.86889648 79.75952148 C49.8881871 80.63241318 49.90747772 81.50530487 49.92735291 82.40464783 C49.98610631 86.45404187 50.03455514 90.50326778 50.06518555 94.55297852 C50.08652639 96.66187148 50.12033402 98.77068196 50.16772461 100.87915039 C50.6480127 122.49553286 46.23799103 140.49311368 35.66015625 159.32421875 C35.14453125 160.26652344 34.62890625 161.20882812 34.09765625 162.1796875 C18.3277694 189.81984243 -9.11822332 209.51467757 -39.33984375 218.32421875 C-66.37655428 225.30847495 -93.89927878 224.06167596 -118.5078125 210.02368164 C-125.21664779 205.99751593 -131.43725749 201.46036464 -137.33984375 196.32421875 C-138.13519531 195.6384375 -138.93054688 194.95265625 -139.75 194.24609375 C-142.3215749 191.98017355 -144.83777569 189.66665932 -147.33984375 187.32421875 C-147.81711914 186.88094238 -148.29439453 186.43766602 -148.78613281 185.98095703 C-172.62491125 163.67189826 -185.1976296 135.08952006 -186.30859375 102.5234375 C-186.44821633 94.68566579 -185.527592 87.05695472 -184.33984375 79.32421875 C-184.241875 78.63344238 -184.14390625 77.94266602 -184.04296875 77.23095703 C-179.85000905 48.1491954 -162.26625144 20.55211051 -139.30078125 2.5078125 C-97.66248876 -28.19905492 -41.45209374 -35.12990391 0 0 Z M-92.4453125 21.30664062 C-112.03824154 31.17553741 -131.68175868 47.58576499 -140.33984375 68.32421875 C-140.00984375 69.31421875 -139.67984375 70.30421875 -139.33984375 71.32421875 C-125.61537696 73.59525683 -111.87230684 75.73485239 -98.10586548 77.73501587 C-96.56307754 77.95975851 -95.0205706 78.18643933 -93.47836304 78.41513062 C-91.28584707 78.73953788 -89.09234898 79.05627982 -86.8984375 79.37109375 C-85.63314209 79.55510742 -84.36784668 79.73912109 -83.06420898 79.92871094 C-79.10231969 80.34944254 -75.31991031 80.39143006 -71.33984375 80.32421875 C-66.60335492 58.33883454 -61.9614045 36.33400462 -57.33984375 14.32421875 C-67.32546551 10.99567816 -83.13566436 16.9627139 -92.4453125 21.30664062 Z M-23.33984375 17.32421875 C-24.83269953 20.07826021 -25.72411285 22.5291714 -26.3125 25.6015625 C-26.48434814 26.47989746 -26.65619629 27.35823242 -26.83325195 28.26318359 C-27.02105225 29.2527002 -27.20885254 30.2422168 -27.40234375 31.26171875 C-27.8548562 33.58605684 -28.30803241 35.91026576 -28.76171875 38.234375 C-28.88557449 38.87282349 -29.00943024 39.51127197 -29.13703918 40.16906738 C-30.10277258 45.1410519 -31.0987163 50.10648659 -32.10546875 55.0703125 C-37.29174071 80.68451447 -42.27503848 106.33766193 -47.23101425 131.99723053 C-47.77471258 134.81060374 -48.31931945 137.62379969 -48.86416626 140.43695068 C-49.7350477 144.9344802 -50.60324509 149.43252027 -51.46946335 153.93095016 C-51.79192113 155.60369758 -52.11516971 157.27629278 -52.43928909 158.94871902 C-54.2669942 168.38430836 -55.97160392 177.8089679 -57.33984375 187.32421875 C-43.76803256 185.49543169 -31.31529603 179.688592 -21.33984375 170.32421875 C-20.4375 169.50050781 -19.53515625 168.67679688 -18.60546875 167.828125 C2.72746997 147.52647476 14.61661395 118.41277631 15.78515625 89.19921875 C16.17673327 67.6624827 12.58409434 43.17838583 -2.75 26.74609375 C-8.22604352 21.84860029 -15.85826048 17.32421875 -23.33984375 17.32421875 Z M-149.33984375 105.32421875 C-150.16869625 127.59774589 -143.96060921 148.96345907 -129.34375 166.1875 C-121.29414782 174.77060408 -105.94541062 184.00549405 -93.96484375 184.44921875 C-93.09859375 184.40796875 -92.23234375 184.36671875 -91.33984375 184.32421875 C-88.55493319 171.38126096 -85.93099268 158.43455338 -83.72851562 145.37890625 C-82.59416217 138.67548419 -81.29933366 132.0261271 -79.85546875 125.3828125 C-79.33554125 122.29869711 -79.30404048 119.4447991 -79.33984375 116.32421875 C-90.8128867 114.12036889 -102.30970671 112.09070358 -113.83203125 110.16210938 C-116.60106345 109.69733556 -119.36886371 109.22563313 -122.13671875 108.75390625 C-131.1877309 107.22799765 -140.15946643 105.80901456 -149.33984375 105.32421875 Z " fill="#6A6B6C" transform="translate(186.33984375,31.67578125)"/>
<path d="M0 0 C0.73283203 -0.00386719 1.46566406 -0.00773438 2.22070312 -0.01171875 C7.68413018 -0.00168491 7.68413018 -0.00168491 9.9375 1.125 C9.9375 4.095 9.9375 7.065 9.9375 10.125 C9.2775 10.125 8.6175 10.125 7.9375 10.125 C7.94910156 10.88425781 7.96070313 11.64351562 7.97265625 12.42578125 C7.98167969 13.41964844 7.99070313 14.41351563 8 15.4375 C8.01160156 16.42363281 8.02320313 17.40976562 8.03515625 18.42578125 C7.9375 21.125 7.9375 21.125 6.9375 24.125 C1.6575 24.455 -3.6225 24.785 -9.0625 25.125 C-4.47265625 25.46679688 -4.47265625 25.46679688 0.1171875 25.80859375 C2.9375 26.125 2.9375 26.125 4.9375 27.125 C4.6075 29.435 4.2775 31.745 3.9375 34.125 C-1.3425 35.115 -6.6225 36.105 -12.0625 37.125 C-12.0625 37.785 -12.0625 38.445 -12.0625 39.125 C-13.031875 39.38152344 -14.00125 39.63804688 -15 39.90234375 C-29.71062886 44.0162076 -42.69054008 50.82037421 -54.0625 61.125 C-54.87976563 61.86105469 -55.69703125 62.59710938 -56.5390625 63.35546875 C-64.81574393 71.20934757 -72.36103417 80.6638606 -77.0625 91.125 C-77.0625 91.785 -77.0625 92.445 -77.0625 93.125 C-59.42598487 96.01943599 -41.76267034 98.65178739 -24.0625 101.125 C-24.0625 101.785 -24.0625 102.445 -24.0625 103.125 C-19.1125 103.455 -14.1625 103.785 -9.0625 104.125 C-9.53356915 110.48443356 -10.26911285 116.00638501 -12.0625 122.125 C-12.62651565 125.52135509 -13.12285842 128.92211955 -13.59765625 132.33203125 C-14.0625 135.125 -14.0625 135.125 -15.0625 137.125 C-28.6222234 137.64004474 -41.24000012 136.12064408 -54.5625 133.6875 C-57.33382914 133.19449054 -60.10587603 132.70588797 -62.87854004 132.22044373 C-64.58252064 131.92076121 -66.2856563 131.61621107 -67.9876709 131.30555725 C-72.98823391 130.40989029 -77.95041063 129.79546823 -83.01477051 129.38414001 C-85.0625 129.125 -85.0625 129.125 -87.0625 128.125 C-85.60672163 151.27767186 -81.02212132 173.9459381 -64.0625 191.125 C-55.13082814 198.81146459 -44.00194627 203.37043758 -32.890625 206.97265625 C-31.0625 208.125 -31.0625 208.125 -30.26953125 210.4765625 C-29.97866283 214.19748307 -30.50014005 217.43841813 -31.0625 221.125 C-30.4025 221.125 -29.7425 221.125 -29.0625 221.125 C-29.248125 221.8675 -29.43375 222.61 -29.625 223.375 C-30.05453108 226.07490963 -29.91372974 227.57131077 -29.0625 230.125 C-26.7525 230.455 -24.4425 230.785 -22.0625 231.125 C-22.0625 231.455 -22.0625 231.785 -22.0625 232.125 C-26.0225 232.125 -29.9825 232.125 -34.0625 232.125 C-32.93862881 235.49661357 -32.35850597 235.84535171 -29.5 237.6875 C-27.55859375 238.94140625 -27.55859375 238.94140625 -26.0625 240.125 C-26.0625 240.785 -26.0625 241.445 -26.0625 242.125 C-31.20100938 243.92038279 -35.09973212 242.09676067 -39.9375 240.25 C-40.77595459 239.93409912 -41.61440918 239.61819824 -42.47827148 239.29272461 C-54.61939399 234.53744203 -65.22834841 227.68220441 -75.0625 219.125 C-75.85785156 218.43921875 -76.65320313 217.7534375 -77.47265625 217.046875 C-80.04423115 214.7809548 -82.56043194 212.46744057 -85.0625 210.125 C-85.53977539 209.68172363 -86.01705078 209.23844727 -86.50878906 208.78173828 C-110.3475675 186.47267951 -122.92028585 157.89030131 -124.03125 125.32421875 C-124.17087258 117.48644704 -123.25024825 109.85773597 -122.0625 102.125 C-121.96453125 101.43422363 -121.8665625 100.74344727 -121.765625 100.03173828 C-117.5726653 70.94997665 -99.98890769 43.35289176 -77.0234375 25.30859375 C-68.84238776 19.27533939 -60.49066869 14.12293552 -51.3125 9.75 C-50.64009277 9.42829834 -49.96768555 9.10659668 -49.27490234 8.77514648 C-40.22315546 4.61442249 -31.54307275 2.68493123 -21.625 2 C-19.68856622 1.85467186 -17.75235266 1.7063699 -15.81640625 1.5546875 C-14.97408447 1.49522949 -14.1317627 1.43577148 -13.26391602 1.37451172 C-1.08591457 -0.00576082 -1.08591457 -0.00576082 0 0 Z " fill="#490604" transform="translate(124.0625,8.875)"/>
<path d="M0 0 C4.22336067 1.64639484 7.07210313 4.76928435 10.1875 7.9375 C10.76193848 8.51870605 11.33637695 9.09991211 11.92822266 9.69873047 C27.91264856 26.06724708 45.70719675 51.34069549 46.20874023 75.43530273 C46.22803085 76.30819443 46.24732147 77.18108612 46.26719666 78.08042908 C46.32595006 82.12982312 46.37439889 86.17904903 46.4050293 90.22875977 C46.42637014 92.33765273 46.46017777 94.44646321 46.50756836 96.55493164 C46.98785645 118.17131411 42.57783478 136.16889493 32 155 C31.484375 155.94230469 30.96875 156.88460937 30.4375 157.85546875 C14.66761315 185.49562368 -12.77837957 205.19045882 -43 214 C-53.74867677 216.77665111 -64.28880111 218.1965824 -75.375 218.1875 C-76.19846924 218.18814453 -77.02193848 218.18878906 -77.87036133 218.18945312 C-84.07072696 218.13584941 -89.97066402 217.5174958 -96 216 C-94.68 215.67 -93.36 215.34 -92 215 C-92.10613836 212.54775306 -92.10613836 212.54775306 -93 210 C-95.47636012 208.62533375 -95.47636012 208.62533375 -98 208 C-98 207.34 -98 206.68 -98 206 C-97.31188232 205.98018066 -96.62376465 205.96036133 -95.91479492 205.93994141 C-78.59100154 205.4224441 -78.59100154 205.4224441 -61.3125 204.125 C-60.56701904 204.05877441 -59.82153809 203.99254883 -59.0534668 203.92431641 C-54.11803855 203.39311369 -50.43776094 202.07272666 -46 200 C-44.50793125 199.47680706 -43.00876412 198.97289622 -41.5 198.5 C-34.17611061 196.47626622 -34.17611061 196.47626622 -28.5 191.9375 C-26.2396322 189.01785826 -23.49370635 188.79102785 -20 188 C-20 187.34 -20 186.68 -20 186 C-19.01 186 -18.02 186 -17 186 C-16.79375 185.44828125 -16.5875 184.8965625 -16.375 184.328125 C-14.48788097 181.13288937 -11.84313599 179.05669524 -9 176.75 C-8.4534375 176.29109375 -7.906875 175.8321875 -7.34375 175.359375 C-3.26450893 172 -3.26450893 172 -1 172 C-0.34 170.68 0.32 169.36 1 168 C1.66 168 2.32 168 3 168 C3.20625 167.443125 3.4125 166.88625 3.625 166.3125 C5 164 5 164 7.828125 161.78125 C11.1362079 159.08479973 13.13926952 155.92761372 15.125 152.1875 C15.4648291 151.57165039 15.8046582 150.95580078 16.15478516 150.32128906 C17.97298441 147.00261717 19.70531951 143.64543233 21.375 140.25 C23 137 23 137 25 135 C26.67466002 131.43519062 27.42988148 128.07143242 28 124.1875 C28.53555964 120.72533889 29.1085736 117.37053996 30.0625 114 C32.50151103 104.73557901 32.19388632 94.70027942 32.1875 85.1875 C32.18741943 84.05328613 32.18733887 82.91907227 32.18725586 81.75048828 C32.13008563 73.32419784 31.42750369 65.31050595 30 57 C29.82417507 55.48019824 29.65588214 53.95947653 29.5 52.4375 C29.00591613 49.04067343 28.12568337 46.23779031 27 43 C26.58363281 41.76765625 26.16726562 40.5353125 25.73828125 39.265625 C22.80701937 30.89797906 19.48699911 24.05276808 14 17 C13.401875 16.01 12.80375 15.02 12.1875 14 C9.21784534 9.92733075 5.66504268 6.57212941 2.046875 3.07421875 C0 1 0 1 0 0 Z " fill="#8B8C8C" transform="translate(190,36)"/>
<path d="M0 0 C10.53463178 0.6161082 20.88118769 2.02366458 31.3125 3.5625 C32.93939544 3.79922489 34.5663483 4.03555552 36.19335938 4.27148438 C40.12958122 4.84312529 44.0649936 5.42005387 48 6 C48 6.66 48 7.32 48 8 C52.95 8.33 57.9 8.66 63 9 C62.52893085 15.35943356 61.79338715 20.88138501 60 27 C59.43598435 30.39635509 58.93964158 33.79711955 58.46484375 37.20703125 C58 40 58 40 57 42 C43.4402766 42.51504474 30.82249988 40.99564408 17.5 38.5625 C14.72867086 38.06949054 11.95662397 37.58088797 9.18395996 37.09544373 C7.47997936 36.79576121 5.7768437 36.49121107 4.0748291 36.18055725 C-0.92573391 35.28489029 -5.88791063 34.67046823 -10.95227051 34.25914001 C-13 34 -13 34 -15 33 C-13.35626187 59.14198037 -7.24170143 81.1414298 12 100 C7.96115115 100.46963359 6.45878506 100.35683282 3.1875 97.8125 C1 95 1 95 0.5 92.3125 C0.2525 91.1678125 0.2525 91.1678125 0 90 C-2.47636012 88.62533375 -2.47636012 88.62533375 -5 88 C-5 87.34 -5 86.68 -5 86 C-5.66 86 -6.32 86 -7 86 C-7 85.34 -7 84.68 -7 84 C-7.66 84 -8.32 84 -9 84 C-9 83.01 -9 82.02 -9 81 C-10.485 80.505 -10.485 80.505 -12 80 C-12 79.01 -12 78.02 -12 77 C-12.66 77 -13.32 77 -14 77 C-14 76.01 -14 75.02 -14 74 C-14.66 74 -15.32 74 -16 74 C-19.54962795 67.77631899 -22.72731536 61.61553612 -25.23828125 54.8984375 C-25.84669984 53.02231973 -25.84669984 53.02231973 -27 52 C-27.20839015 50.35892758 -27.36751725 48.71143707 -27.5 47.0625 C-27.75214943 43.39442535 -27.75214943 43.39442535 -29 40 C-29.2367715 36.83880202 -29.18518001 33.66910262 -29.1875 30.5 C-29.20586914 29.17935547 -29.20586914 29.17935547 -29.22460938 27.83203125 C-29.22654297 26.99027344 -29.22847656 26.14851563 -29.23046875 25.28125 C-29.23457764 24.50845703 -29.23868652 23.73566406 -29.24291992 22.93945312 C-29 21 -29 21 -27 19 C-24.42578125 19.171875 -24.42578125 19.171875 -21.3125 19.75 C-20.29800781 19.93046875 -19.28351562 20.1109375 -18.23828125 20.296875 C-15 21 -15 21 -11.76953125 22.07421875 C-6.89095085 23.27237787 -2.37282965 23.1714562 2.625 23.0625 C21.07912734 22.86916666 21.07912734 22.86916666 27 24 C27.495 24.99 27.495 24.99 28 26 C29.051875 25.7525 30.10375 25.505 31.1875 25.25 C35.92928172 24.93906349 36.43932994 26.13409483 40 29 C44.1133334 29.64425704 48.00716457 29.07499415 52 28 C52.66 28.33 53.32 28.66 54 29 C54.06058594 28.25234375 54.12117188 27.5046875 54.18359375 26.734375 C54.30927734 25.25710937 54.30927734 25.25710937 54.4375 23.75 C54.55931641 22.28820312 54.55931641 22.28820312 54.68359375 20.796875 C54.95074584 18.43538247 55.35371968 16.28098935 56 14 C54.948125 13.855625 53.89625 13.71125 52.8125 13.5625 C49.84539451 13.12473034 46.93205634 12.62195134 44 12 C44 11.34 44 10.68 44 10 C42.35 9.67 40.7 9.34 39 9 C39 9.66 39 10.32 39 11 C38.34 11 37.68 11 37 11 C37 10.34 37 9.68 37 9 C32.545 9.495 32.545 9.495 28 10 C28 9.34 28 8.68 28 8 C27.18015625 8 26.3603125 8 25.515625 8 C12 8 12 8 10.0625 7.4375 C7.91135605 6.82551447 7.91135605 6.82551447 5.4375 7.625 C3 8 3 8 1.1875 6.875 C-0.33662125 4.46849276 -0.08716771 2.79854211 0 0 Z M3 5 C4 7 4 7 4 7 Z " fill="#5C1517" transform="translate(52,104)"/>
<path d="M0 0 C0 0.33 0 0.66 0 1 C1.26457031 1.09087891 1.26457031 1.09087891 2.5546875 1.18359375 C4.19824219 1.30927734 4.19824219 1.30927734 5.875 1.4375 C6.96554688 1.51871094 8.05609375 1.59992187 9.1796875 1.68359375 C12 2 12 2 14 3 C13.67 5.31 13.34 7.62 13 10 C5.08 11.485 5.08 11.485 -3 13 C-3 13.66 -3 14.32 -3 15 C-3.969375 15.25652344 -4.93875 15.51304688 -5.9375 15.77734375 C-20.64812886 19.8912076 -33.62804008 26.69537421 -45 37 C-45.81726563 37.73605469 -46.63453125 38.47210938 -47.4765625 39.23046875 C-55.75324393 47.08434757 -63.29853417 56.5388606 -68 67 C-68 67.66 -68 68.32 -68 69 C-66.35 69.33 -64.7 69.66 -63 70 C-63 70.66 -63 71.32 -63 72 C-80.79409365 72.24082232 -80.79409365 72.24082232 -85 69.875 C-86.69173453 66.70299775 -85.84030739 64.41725003 -85 61 C-83.80761314 58.2498174 -82.46107343 55.61634079 -81 53 C-80.34 53 -79.68 53 -79 53 C-78.855625 52.38125 -78.71125 51.7625 -78.5625 51.125 C-78 49 -78 49 -77 47 C-76.34 47 -75.68 47 -75 47 C-74.896875 46.236875 -74.79375 45.47375 -74.6875 44.6875 C-73.93772808 41.75657342 -73.16526733 40.98482838 -71 39 C-70.67 38.01 -70.34 37.02 -70 36 C-69.01 35.505 -69.01 35.505 -68 35 C-67.67 34.01 -67.34 33.02 -67 32 C-66.34 32 -65.68 32 -65 32 C-64.67 31.01 -64.34 30.02 -64 29 C-59.51683066 23.76963577 -53.75392404 19.734028 -48 16 C-47.34 16 -46.68 16 -46 16 C-46 15.34 -46 14.68 -46 14 C-42.9802079 12.56030542 -39.95897965 11.12364913 -36.9375 9.6875 C-35.66616211 9.08131836 -35.66616211 9.08131836 -34.36914062 8.46289062 C-22.76925348 2.95406391 -13.03066988 -0.49904693 0 0 Z " fill="#4F1214" transform="translate(115,33)"/>
<path d="M0 0 C0.66 0.33 1.32 0.66 2 1 C1.32453125 1.58007812 0.6490625 2.16015625 -0.046875 2.7578125 C-4.7765841 6.89972538 -8.78533573 10.59936403 -12 16 C-13.66631193 17.94403058 -14.70139212 18.87331787 -17.0625 19.875 C-19.71177751 21.41329016 -20.10035344 23.15111923 -21 26 C-20.34 26.66 -19.68 27.32 -19 28 C-19.66 28 -20.32 28 -21 28 C-21.33 29.98 -21.66 31.96 -22 34 C-22.99 34 -23.98 34 -25 34 C-25.11730469 34.55300781 -25.23460938 35.10601562 -25.35546875 35.67578125 C-26.09433721 38.3401857 -27.12193896 40.69211355 -28.3125 43.1875 C-28.72113281 44.06792969 -29.12976563 44.94835937 -29.55078125 45.85546875 C-31 48 -31 48 -33.16796875 48.80078125 C-33.77253906 48.86652344 -34.37710938 48.93226562 -35 49 C-35.17015625 49.75023437 -35.3403125 50.50046875 -35.515625 51.2734375 C-36.9580071 57.36520021 -38.65885187 63.09035319 -41.1328125 68.84375 C-41.95302669 70.88320151 -42.52277077 72.85733816 -43 75 C-43.66 75 -44.32 75 -45 75 C-45.83159403 83.39360621 -46.15479654 91.69257795 -46.125 100.125 C-46.12886719 101.22714844 -46.13273437 102.32929688 -46.13671875 103.46484375 C-46.66531547 115.25986268 -46.66531547 115.25986268 -43 126 C-41.94066077 129.52970117 -41.02402609 133.08563233 -40.09765625 136.65234375 C-39.06772581 139.79344833 -38.01671782 141.46562199 -36 144 C-35.19140625 146.18359375 -35.19140625 146.18359375 -34.5625 148.4375 C-33.34108686 152.35887902 -31.7457305 154.8999817 -29 158 C-27.39098164 160.73533121 -27 161.75885515 -27 165 C-25.35 165.33 -23.7 165.66 -22 166 C-21.87625 166.804375 -21.7525 167.60875 -21.625 168.4375 C-21.41875 169.283125 -21.2125 170.12875 -21 171 C-20.34 171.33 -19.68 171.66 -19 172 C-18.5859375 174.06640625 -18.5859375 174.06640625 -18.375 176.5625 C-18.30023438 177.38878906 -18.22546875 178.21507812 -18.1484375 179.06640625 C-18.09945312 179.70449219 -18.05046875 180.34257812 -18 181 C-22.33715568 177.61827571 -25.72215122 174.15513236 -28.875 169.625 C-29.30135742 169.0155957 -29.72771484 168.40619141 -30.16699219 167.77832031 C-48.29538702 141.32248982 -53.84132528 111.51904479 -49 80 C-48.90203125 79.30922363 -48.8040625 78.61844727 -48.703125 77.90673828 C-44.24418094 46.98014767 -25.28322243 19.95060916 -1 1 C-0.67 0.67 -0.34 0.34 0 0 Z " fill="#9B8076" transform="translate(51,31)"/>
<path d="M0 0 C10.53463178 0.6161082 20.88118769 2.02366458 31.3125 3.5625 C32.93939544 3.79922489 34.5663483 4.03555552 36.19335938 4.27148438 C40.12958122 4.84312529 44.0649936 5.42005387 48 6 C48 6.66 48 7.32 48 8 C52.95 8.33 57.9 8.66 63 9 C62.52893085 15.35943356 61.79338715 20.88138501 60 27 C59.25169071 31.32186794 58.61387219 35.65718078 58 40 C57.67 40 57.34 40 57 40 C57 38.35 57 36.7 57 35 C56.22398438 34.95101562 55.44796875 34.90203125 54.6484375 34.8515625 C47.521683 34.35830264 40.5198472 33.53875929 33.45703125 32.4765625 C28.32086819 31.76852646 23.17076149 31.35986985 18 31 C18 30.34 18 29.68 18 29 C17.35933594 29.03480469 16.71867187 29.06960937 16.05859375 29.10546875 C10.16635234 29.28987571 6.23335445 28.7304458 1 26 C1 25.67 1 25.34 1 25 C4.3 25 7.6 25 11 25 C10.67 24.34 10.34 23.68 10 23 C15.94 23.33 21.88 23.66 28 24 C28 24.66 28 25.32 28 26 C29.051875 25.7525 30.10375 25.505 31.1875 25.25 C35.92928172 24.93906349 36.43932994 26.13409483 40 29 C44.1133334 29.64425704 48.00716457 29.07499415 52 28 C52.66 28.33 53.32 28.66 54 29 C54.09087891 27.87851563 54.09087891 27.87851563 54.18359375 26.734375 C54.26738281 25.74953125 54.35117188 24.7646875 54.4375 23.75 C54.51871094 22.77546875 54.59992188 21.8009375 54.68359375 20.796875 C54.95074584 18.43538247 55.35371968 16.28098935 56 14 C54.948125 13.855625 53.89625 13.71125 52.8125 13.5625 C49.84539451 13.12473034 46.93205634 12.62195134 44 12 C44 11.34 44 10.68 44 10 C41.525 9.505 41.525 9.505 39 9 C39 9.66 39 10.32 39 11 C38.34 11 37.68 11 37 11 C37 10.34 37 9.68 37 9 C32.545 9.495 32.545 9.495 28 10 C28 9.34 28 8.68 28 8 C27.18015625 8 26.3603125 8 25.515625 8 C12 8 12 8 10.0625 7.4375 C7.91135605 6.82551447 7.91135605 6.82551447 5.4375 7.625 C3 8 3 8 1.1875 6.875 C-0.33662125 4.46849276 -0.08716771 2.79854211 0 0 Z M3 5 C4 7 4 7 4 7 Z " fill="#97291E" transform="translate(52,104)"/>
<path d="M0 0 C0.99 0.33 1.98 0.66 3 1 C5.22818441 1.06937062 7.45834524 1.08457084 9.6875 1.0625 C10.86699219 1.05347656 12.04648437 1.04445312 13.26171875 1.03515625 C14.16535156 1.02355469 15.06898437 1.01195312 16 1 C16 1.66 16 2.32 16 3 C17.918125 2.9690625 17.918125 2.9690625 19.875 2.9375 C23.75 2.875 23.75 2.875 26 4 C27.70363822 4.22622081 29.41328701 4.40888473 31.125 4.5625 C32.03507812 4.64628906 32.94515625 4.73007813 33.8828125 4.81640625 C34.58148438 4.87699219 35.28015625 4.93757812 36 5 C36 5.66 36 6.32 36 7 C36.61101562 6.96519531 37.22203125 6.93039063 37.8515625 6.89453125 C50.26969848 6.52723427 62.85687871 8.49466244 75 11 C75 13.31 75 15.62 75 18 C48.78640777 18.52427184 48.78640777 18.52427184 42 14 C40.01200182 13.29835358 38.01301483 12.62627128 36 12 C36 11.34 36 10.68 36 10 C35.34 10.33 34.68 10.66 34 11 C31.95944995 11.07065617 29.91665743 11.08421976 27.875 11.0625 C26.77929688 11.05347656 25.68359375 11.04445312 24.5546875 11.03515625 C23.29011719 11.01775391 23.29011719 11.01775391 22 11 C22 10.67 22 10.34 22 10 C20.71802734 9.90912109 20.71802734 9.90912109 19.41015625 9.81640625 C18.30542969 9.73261719 17.20070313 9.64882812 16.0625 9.5625 C14.96035156 9.48128906 13.85820313 9.40007812 12.72265625 9.31640625 C10 9 10 9 9 8 C7.865625 7.87625 6.73125 7.7525 5.5625 7.625 C4.386875 7.41875 3.21125 7.2125 2 7 C0 4 0 4 0 0 Z " fill="#440C0F" transform="translate(34,128)"/>
<path d="M0 0 C2.15425887 0.96570225 3.76745516 1.74631472 5.375 3.5 C7.6393766 5.59019379 10.07651684 6.1554382 13 7 C13 7.66 13 8.32 13 9 C15.65228812 10.07525194 18.28368454 11.09456151 21 12 C21.433125 12.45375 21.86625 12.9075 22.3125 13.375 C24.58724569 15.56549585 27.15646023 16.67301478 30 18 C30 18.66 30 19.32 30 20 C30.99 20.33 31.98 20.66 33 21 C32.01 21.33 31.02 21.66 30 22 C30 22.66 30 23.32 30 24 C30.99 24 31.98 24 33 24 C33 24.66 33 25.32 33 26 C34.32 26 35.64 26 37 26 C37 25.34 37 24.68 37 24 C36.01 23.67 35.02 23.34 34 23 C37.32534757 21.89155081 39.62182575 22.15545644 43 23 C43 23.66 43 24.32 43 25 C46.96 25.33 50.92 25.66 55 26 C55.66 19.07 56.32 12.14 57 5 C55.02 4.34 53.04 3.68 51 3 C51 2.34 51 1.68 51 1 C54.07536854 1.65900754 56.07735566 2.53867783 59 4 C58.67 7.96 58.34 11.92 58 16 C58.66 16 59.32 16 60 16 C59.7215625 17.11375 59.7215625 17.11375 59.4375 18.25 C59.00796892 20.94990963 59.14877026 22.44631077 60 25 C62.31 25.33 64.62 25.66 67 26 C67 26.33 67 26.66 67 27 C63.04 27 59.08 27 55 27 C56.12387119 30.37161357 56.70399403 30.72035171 59.5625 32.5625 C61.50390625 33.81640625 61.50390625 33.81640625 63 35 C63 35.66 63 36.32 63 37 C57.86149062 38.79538279 53.96276788 36.97176067 49.125 35.125 C48.28654541 34.80909912 47.44809082 34.49319824 46.58422852 34.16772461 C34.44343574 29.41257117 23.83352566 22.55729438 14 14 C13.11183594 13.23300781 12.22367188 12.46601563 11.30859375 11.67578125 C7.13508906 8.00042414 3.39347397 4.42391242 0 0 Z " fill="#4E1D1F" transform="translate(35,214)"/>
<path d="M0 0 C10.53463178 0.6161082 20.88118769 2.02366458 31.3125 3.5625 C32.93939544 3.79922489 34.5663483 4.03555552 36.19335938 4.27148438 C40.12958122 4.84312529 44.0649936 5.42005387 48 6 C48 7.32 48 8.64 48 10 C49.85625 9.938125 49.85625 9.938125 51.75 9.875 C55.01637962 9.86341709 57.2146947 10.1431298 60 12 C60 13.32 60 14.64 60 16 C58.68 16.33 57.36 16.66 56 17 C56 16.01 56 15.02 56 14 C54.948125 13.855625 53.89625 13.71125 52.8125 13.5625 C49.84539451 13.12473034 46.93205634 12.62195134 44 12 C44 11.34 44 10.68 44 10 C41.525 9.505 41.525 9.505 39 9 C39 9.66 39 10.32 39 11 C38.34 11 37.68 11 37 11 C37 10.34 37 9.68 37 9 C32.545 9.495 32.545 9.495 28 10 C28 9.34 28 8.68 28 8 C27.18015625 8 26.3603125 8 25.515625 8 C12 8 12 8 10.0625 7.4375 C7.91135605 6.82551447 7.91135605 6.82551447 5.4375 7.625 C3 8 3 8 1.1875 6.875 C-0.33662125 4.46849276 -0.08716771 2.79854211 0 0 Z M3 5 C4 7 4 7 4 7 Z " fill="#AC1D0F" transform="translate(52,104)"/>
<path d="M0 0 C0.33 0 0.66 0 1 0 C1.03440186 0.54712646 1.06880371 1.09425293 1.10424805 1.65795898 C2.82307343 27.17918487 9.25398585 48.62724719 28 67 C23.96115115 67.46963359 22.45878506 67.35683282 19.1875 64.8125 C17 62 17 62 16.5 59.3125 C16.335 58.549375 16.17 57.78625 16 57 C13.52363988 55.62533375 13.52363988 55.62533375 11 55 C11 54.34 11 53.68 11 53 C10.34 53 9.68 53 9 53 C9 52.34 9 51.68 9 51 C8.34 51 7.68 51 7 51 C7 50.01 7 49.02 7 48 C6.01 47.67 5.02 47.34 4 47 C4 46.01 4 45.02 4 44 C3.34 44 2.68 44 2 44 C2 43.01 2 42.02 2 41 C1.34 41 0.68 41 0 41 C-3.125 34.375 -3.125 34.375 -2 31 C-1.34 31 -0.68 31 0 31 C0 20.77 0 10.54 0 0 Z " fill="#57181D" transform="translate(36,137)"/>
<path d="M0 0 C3.44993533 2.67566007 3.96265014 5.81835659 5 9.9375 C6.12591077 14.39892144 7.14511541 17.42187798 10 21 C10.80859375 23.18359375 10.80859375 23.18359375 11.4375 25.4375 C12.65891314 29.35887902 14.2542695 31.8999817 17 35 C18.60901836 37.73533121 19 38.75885515 19 42 C20.65 42.33 22.3 42.66 24 43 C24.12375 43.804375 24.2475 44.60875 24.375 45.4375 C24.58125 46.283125 24.7875 47.12875 25 48 C25.66 48.33 26.32 48.66 27 49 C27.4140625 51.06640625 27.4140625 51.06640625 27.625 53.5625 C27.69976562 54.38878906 27.77453125 55.21507812 27.8515625 56.06640625 C27.92503906 57.02353516 27.92503906 57.02353516 28 58 C23.61692904 54.59023797 20.2377436 51.07883976 17.0625 46.5 C16.63646484 45.89051514 16.21042969 45.28103027 15.77148438 44.65307617 C9.88078147 36.07501689 4.76241388 27.85808687 3.3984375 17.35546875 C3.08578016 14.77443051 3.08578016 14.77443051 1.375 11.875 C-0.5296423 7.89256611 -0.26034963 4.33916048 0 0 Z " fill="#421619" transform="translate(5,154)"/>
<path d="M0 0 C0.33 0 0.66 0 1 0 C1.10452045 5.77185149 1.08808374 11.3177849 0 17 C-0.33 17.33 -0.66 17.66 -1 18 C-1.23454452 19.94336891 -1.46717772 21.88699861 -1.6875 23.83203125 C-2.14094461 26.97780324 -3.12057314 29.94787149 -4 33 C-4.44340183 34.9106588 -4.85853395 36.82802795 -5.25 38.75 C-5.44078125 39.67296875 -5.6315625 40.5959375 -5.828125 41.546875 C-6.26934753 44.25843449 -6.26934753 44.25843449 -4 47 C-3.34 47.33 -2.68 47.66 -2 48 C-1.60830113 50.66355234 -1.59435471 52.39224373 -3.11328125 54.66796875 C-4.36389317 56.1510888 -5.67864514 57.57954352 -7 59 C-6.34 59.33 -5.68 59.66 -5 60 C-5.268125 60.7425 -5.53625 61.485 -5.8125 62.25 C-7.45587873 67.43961704 -8.71641776 72.71164116 -10 78 C-10.66 78 -11.32 78 -12 78 C-12.495 78.99 -12.495 78.99 -13 80 C-12.54050414 69.11470141 -11.07963287 58.68591229 -9 48 C-9.74765625 48.02320313 -10.4953125 48.04640625 -11.265625 48.0703125 C-12.25046875 48.08835938 -13.2353125 48.10640625 -14.25 48.125 C-15.22453125 48.14820313 -16.1990625 48.17140625 -17.203125 48.1953125 C-20 48 -20 48 -24 46 C-19.05 46.33 -14.1 46.66 -9 47 C-8.74476562 45.04835937 -8.48953125 43.09671875 -8.2265625 41.0859375 C-7.00139039 32.50973276 -5.21765685 24.08633136 -3.375 15.625 C-3.04643442 14.09905313 -2.71830708 12.57301184 -2.390625 11.046875 C-1.59877647 7.36347978 -0.80108333 3.68139732 0 0 Z " fill="#C9BBBA" transform="translate(124,65)"/>
<path d="M0 0 C6.4825993 0.21974913 9.15286544 1.47600774 14 6 C14.928125 6.556875 15.85625 7.11375 16.8125 7.6875 C19 9 19 9 20 11 C21.78115049 11.97153663 23.56232057 12.94303744 25.34375 13.9140625 C27.42629826 15.27950688 28.24266041 16.6438324 29 19 C28.34 18.731875 27.68 18.46375 27 18.1875 C26.01 17.795625 25.02 17.40375 24 17 C23.33742187 16.73574219 22.67484375 16.47148438 21.9921875 16.19921875 C21.29351562 15.92722656 20.59484375 15.65523437 19.875 15.375 C19.21242187 15.11460938 18.54984375 14.85421875 17.8671875 14.5859375 C15.84909877 13.85029433 15.84909877 13.85029433 13 14 C12.83395264 14.7748877 12.66790527 15.54977539 12.49682617 16.34814453 C9.66455078 29.56542969 6.83227539 42.78271484 4 56 C3.67 56 3.34 56 3 56 C3.14063135 53.70800823 3.28765943 51.41640814 3.4375 49.125 C3.51871094 47.84882812 3.59992188 46.57265625 3.68359375 45.2578125 C4 42 4 42 5 40 C5.15496396 38.48192714 5.274918 36.96017614 5.375 35.4375 C5.76863015 31.08257601 6.74163268 27.40681289 8.234375 23.31640625 C9.5611891 19.30211665 10.26242621 15.15644525 11 11 C10.01 10.67 9.02 10.34 8 10 C8 9.34 8 8.68 8 8 C7.34 8 6.68 8 6 8 C6 6.68 6 5.36 6 4 C4.35 4.33 2.7 4.66 1 5 C0.01 10.61 -0.98 16.22 -2 22 C-2.84438093 18.62247627 -3.08752128 17.17545655 -2.6953125 13.92578125 C-2.60636719 13.17619141 -2.51742187 12.42660156 -2.42578125 11.65429688 C-2.32652344 10.88150391 -2.22726563 10.10871094 -2.125 9.3125 C-2.03347656 8.52810547 -1.94195312 7.74371094 -1.84765625 6.93554688 C-1.13585283 1.13585283 -1.13585283 1.13585283 0 0 Z " fill="#868687" transform="translate(150,36)"/>
<path d="M0 0 C1.23278687 -0.01377686 1.23278687 -0.01377686 2.49047852 -0.02783203 C6.41592965 -0.00733359 8.41374834 0.02583223 11.75 2.25 C14.02538323 2.91613335 14.02538323 2.91613335 16.4375 3.375 C17.24574219 3.54257813 18.05398437 3.71015625 18.88671875 3.8828125 C19.50160156 4.00398437 20.11648437 4.12515625 20.75 4.25 C20.09 5.24 19.43 6.23 18.75 7.25 C17.821875 6.940625 17.821875 6.940625 16.875 6.625 C16.17375 6.50125 15.4725 6.3775 14.75 6.25 C11.82903563 9.17096437 12.10947851 12.49987892 11.75 16.4375 C11.23405184 21.94572433 10.42909212 26.96785604 8.75 32.25 C9.74 32.745 9.74 32.745 10.75 33.25 C9.76 33.58 8.77 33.91 7.75 34.25 C7.255 31.28 7.255 31.28 6.75 28.25 C6.55664062 28.88808594 6.36328125 29.52617188 6.1640625 30.18359375 C5.90367187 31.00988281 5.64328125 31.83617188 5.375 32.6875 C5.11976563 33.51121094 4.86453125 34.33492187 4.6015625 35.18359375 C3.75 37.25 3.75 37.25 1.75 38.25 C-0.62123246 38.48029956 -2.99741943 38.66119942 -5.375 38.8125 C-6.65632813 38.89628906 -7.93765625 38.98007812 -9.2578125 39.06640625 C-10.73894531 39.15728516 -10.73894531 39.15728516 -12.25 39.25 C-9.43515955 36.43515955 -7.0333753 36.62242958 -3.125 36.125 C-1.20300781 35.87363281 -1.20300781 35.87363281 0.7578125 35.6171875 C1.74523437 35.49601562 2.73265625 35.37484375 3.75 35.25 C4.08 32.94 4.41 30.63 4.75 28.25 C-0.2 27.92 -5.15 27.59 -10.25 27.25 C-9.92 26.59 -9.59 25.93 -9.25 25.25 C-3.97 25.25 1.31 25.25 6.75 25.25 C7.08 20.63 7.41 16.01 7.75 11.25 C8.41 11.25 9.07 11.25 9.75 11.25 C9.75 8.28 9.75 5.31 9.75 2.25 C6.81243881 2.2230499 3.87512445 2.20318526 0.9375 2.1875 C0.10412109 2.17912109 -0.72925781 2.17074219 -1.58789062 2.16210938 C-2.39033203 2.15888672 -3.19277344 2.15566406 -4.01953125 2.15234375 C-4.75792236 2.14710693 -5.49631348 2.14187012 -6.25708008 2.13647461 C-8.46057409 2.17476787 -8.46057409 2.17476787 -11.25 3.25 C-12.65664926 3.39492123 -14.0681133 3.49628931 -15.48046875 3.56640625 C-16.28291016 3.60830078 -17.08535156 3.65019531 -17.91210938 3.69335938 C-18.74548828 3.73267578 -19.57886719 3.77199219 -20.4375 3.8125 C-21.28248047 3.85568359 -22.12746094 3.89886719 -22.99804688 3.94335938 C-25.08184433 4.04931518 -27.16590103 4.1501502 -29.25 4.25 C-21.06230149 -0.53789249 -9.24620292 0.05831337 0 0 Z " fill="#6E595A" transform="translate(124.25,7.75)"/>
<path d="M0 0 C1.19534967 3.58604901 0.75055027 5.34329507 0.04711914 9.03979492 C-0.18766647 10.29317154 -0.42245209 11.54654816 -0.66435242 12.83790588 C-0.93100045 14.21879541 -1.19783642 15.59964865 -1.46484375 16.98046875 C-1.73680481 18.41560949 -2.00813975 19.850869 -2.27888489 21.28623962 C-3.00573567 25.12850151 -3.7421907 28.96886325 -4.4808197 32.80887604 C-5.08763519 35.96948067 -5.68907507 39.13109794 -6.29049873 42.29273224 C-9.70715683 60.25027414 -13.1700703 78.19923175 -16.75 96.125 C-16.99591385 97.35783218 -16.99591385 97.35783218 -17.24679565 98.61557007 C-19.81116251 111.43348752 -19.81116251 111.43348752 -21 115 C-20.19780029 114.71950806 -20.19780029 114.71950806 -19.37939453 114.43334961 C-16.96388646 113.59361799 -14.54457308 112.76544193 -12.125 111.9375 C-11.28324219 111.64294922 -10.44148437 111.34839844 -9.57421875 111.04492188 C-8.76855469 110.77099609 -7.96289062 110.49707031 -7.1328125 110.21484375 C-6.01737061 109.82993774 -6.01737061 109.82993774 -4.87939453 109.43725586 C-3 109 -3 109 -1 110 C-7.53600151 114.17191586 -14.13049802 116.50770981 -22 116 C-22.18106495 110.38698669 -21.8460601 105.42924444 -20.640625 99.953125 C-19.82893414 96.2114281 -19.1336715 92.45212537 -18.4375 88.6875 C-17.96122153 86.12443756 -17.48159322 83.56207595 -17 81 C-16.76990234 79.67935547 -16.76990234 79.67935547 -16.53515625 78.33203125 C-16 76 -16 76 -14.9765625 73.61328125 C-13.78576991 70.42672027 -13.58044402 67.57732639 -13.375 64.1875 C-13.30023438 63.02605469 -13.22546875 61.86460937 -13.1484375 60.66796875 C-13.07496094 59.34732422 -13.07496094 59.34732422 -13 58 C-12.34 58 -11.68 58 -11 58 C-10.95101562 57.17757812 -10.90203125 56.35515625 -10.8515625 55.5078125 C-9.58415842 36.58415842 -9.58415842 36.58415842 -7 34 C-6.49708117 31.57478 -6.0453874 29.15856719 -5.625 26.71875 C-5.49561035 25.99006714 -5.3662207 25.26138428 -5.23291016 24.51062012 C-4.81817031 22.17439405 -4.40849267 19.83732599 -4 17.5 C-3.46280695 14.42627216 -2.92053 11.35350782 -2.375 8.28125 C-2.25205566 7.56771362 -2.12911133 6.85417725 -2.00244141 6.11901855 C-1.11280181 1.11280181 -1.11280181 1.11280181 0 0 Z " fill="#B6B6B6" transform="translate(150,104)"/>
<path d="M0 0 C11.2197419 0.43791725 21.98505085 1.83245431 33 4 C33 6.31 33 8.62 33 11 C22.78451249 11.20430975 13.04273512 11.2054634 3 9 C6.78133624 6.47910918 7.66628862 7.16738958 12 8 C14.45754141 8.06578002 16.91668778 8.08569162 19.375 8.0625 C21.56125 8.041875 23.7475 8.02125 26 8 C12.635 6.02 12.635 6.02 -1 4 C-0.67 2.68 -0.34 1.36 0 0 Z " fill="#4B0A0D" transform="translate(76,135)"/>
<path d="M0 0 C0.99 0.495 0.99 0.495 2 1 C2.37890625 2.8125 2.37890625 2.8125 2.5625 5 C2.62665408 7.78932058 2.62665408 7.78932058 4 10 C4.98045065 16.80868507 5.17226897 23.22689038 4 30 C4.66 30 5.32 30 6 30 C5.9278125 30.86882812 5.855625 31.73765625 5.78125 32.6328125 C5.6884375 33.78523438 5.595625 34.93765625 5.5 36.125 C5.4071875 37.26195312 5.314375 38.39890625 5.21875 39.5703125 C4.94868514 42.97733975 4.94868514 42.97733975 5.09375 46.3046875 C5 49 5 49 3 51 C2.60235737 52.98821313 2.26224651 54.98944339 2 57 C1.34 57 0.68 57 0 57 C0 38.19 0 19.38 0 0 Z " fill="#A5A6A7" transform="translate(223,91)"/>
<path d="M0 0 C0.66 0.33 1.32 0.66 2 1 C1.32453125 1.58007812 0.6490625 2.16015625 -0.046875 2.7578125 C-4.7765841 6.89972538 -8.78533573 10.59936403 -12 16 C-13.66631193 17.94403058 -14.70139212 18.87331787 -17.0625 19.875 C-19.71177751 21.41329016 -20.10035344 23.15111923 -21 26 C-20.34 26.66 -19.68 27.32 -19 28 C-19.66 28 -20.32 28 -21 28 C-21.33 29.98 -21.66 31.96 -22 34 C-22.99 34 -23.98 34 -25 34 C-25.11730469 34.55300781 -25.23460937 35.10601562 -25.35546875 35.67578125 C-26.09433721 38.3401857 -27.12193896 40.69211355 -28.3125 43.1875 C-28.72113281 44.06792969 -29.12976562 44.94835937 -29.55078125 45.85546875 C-31 48 -31 48 -33.16796875 48.80078125 C-33.77253906 48.86652344 -34.37710938 48.93226562 -35 49 C-35.19335938 49.85464844 -35.38671875 50.70929688 -35.5859375 51.58984375 C-35.84632812 52.69457031 -36.10671875 53.79929688 -36.375 54.9375 C-36.75785156 56.59072266 -36.75785156 56.59072266 -37.1484375 58.27734375 C-37.42945313 59.17582031 -37.71046875 60.07429688 -38 61 C-38.99 61.495 -38.99 61.495 -40 62 C-39.67 59.36 -39.34 56.72 -39 54 C-38.34 54 -37.68 54 -37 54 C-36.67 51.03 -36.34 48.06 -36 45 C-34.35 44.34 -32.7 43.68 -31 43 C-31 42.34 -31 41.68 -31 41 C-30.34 41 -29.68 41 -29 41 C-29.00644531 40.16339844 -29.01289063 39.32679687 -29.01953125 38.46484375 C-28.17421091 24.06249908 -18.53138548 16.03156086 -8.4375 6.75 C-5.70770915 4.37466766 -2.91594512 2.14232702 0 0 Z " fill="#461A1C" transform="translate(51,31)"/>
<path d="M0 0 C4.95 0.33 9.9 0.66 15 1 C14.5332314 7.30137613 13.99796233 13.006113 12 19 C11.34 19 10.68 19 10 19 C9.34 20.98 8.68 22.96 8 25 C4.37 25 0.74 25 -3 25 C-3.33 24.01 -3.66 23.02 -4 22 C-0.14742381 20.12874871 1.87951136 20.00969769 6 21 C6.04898438 20.22914063 6.09796875 19.45828125 6.1484375 18.6640625 C6.22320312 17.66117188 6.29796875 16.65828125 6.375 15.625 C6.47941406 14.12839844 6.47941406 14.12839844 6.5859375 12.6015625 C7 10 7 10 9 8 C9.99 8 10.98 8 12 8 C11.67 6.68 11.34 5.36 11 4 C7.37 3.34 3.74 2.68 0 2 C0 1.34 0 0.68 0 0 Z " fill="#AE2010" transform="translate(100,112)"/>
<path d="M0 0 C1.45606519 4.52092968 0.27032841 7.51648796 -1 12 C-1.66 12 -2.32 12 -3 12 C-3 12.66 -3 13.32 -3 14 C-3.95132812 14.35191406 -3.95132812 14.35191406 -4.921875 14.7109375 C-7.18250739 15.82290908 -7.18250739 15.82290908 -7.828125 18.1640625 C-7.96734375 18.97617188 -8.1065625 19.78828125 -8.25 20.625 C-8.39953125 21.44226563 -8.5490625 22.25953125 -8.703125 23.1015625 C-8.80109375 23.72804688 -8.8990625 24.35453125 -9 25 C-9.66 25 -10.32 25 -11 25 C-11.03738281 25.845625 -11.07476563 26.69125 -11.11328125 27.5625 C-11.50436686 34.31064379 -12.21653623 39.82797163 -15 46 C-15.33 46 -15.66 46 -16 46 C-16.23813473 32.30725326 -14.19245617 22.6662022 -7 11 C-6.64969727 10.42121094 -6.29939453 9.84242187 -5.93847656 9.24609375 C-4.03219023 6.1131694 -2.05784546 3.03532206 0 0 Z " fill="#80605F" transform="translate(23,60)"/>
<path d="M0 0 C0.99 0.33 1.98 0.66 3 1 C2.44570312 1.39832031 1.89140625 1.79664063 1.3203125 2.20703125 C0.59585938 2.73683594 -0.12859375 3.26664063 -0.875 3.8125 C-1.59429687 4.33457031 -2.31359375 4.85664062 -3.0546875 5.39453125 C-5.23028655 7.03272777 -5.23028655 7.03272777 -7 10 C-7.78375 10.45375 -8.5675 10.9075 -9.375 11.375 C-12.34940987 13.21630135 -13.91304609 15.21739479 -16 18 C-16.47566406 18.47179687 -16.95132813 18.94359375 -17.44140625 19.4296875 C-22.32933951 24.35437214 -26.0296251 30.46650015 -29.703125 36.3125 C-30.13109375 36.869375 -30.5590625 37.42625 -31 38 C-31.66 38 -32.32 38 -33 38 C-32.49396008 35.83125748 -32.00016187 34.00032373 -31 32 C-30.34 32 -29.68 32 -29 32 C-28.896875 31.236875 -28.79375 30.47375 -28.6875 29.6875 C-27.93772808 26.75657342 -27.16526733 25.98482838 -25 24 C-24.67 23.01 -24.34 22.02 -24 21 C-23.34 20.67 -22.68 20.34 -22 20 C-21.67 19.01 -21.34 18.02 -21 17 C-20.34 17 -19.68 17 -19 17 C-18.67 16.01 -18.34 15.02 -18 14 C-13.19298541 8.39181631 -6.59449962 3.29724981 0 0 Z " fill="#54181A" transform="translate(69,48)"/>
<path d="M0 0 C2 2 2 2 2.1953125 5.0390625 C2.17210937 6.22242188 2.14890625 7.40578125 2.125 8.625 C2.10695313 9.81351563 2.08890625 11.00203125 2.0703125 12.2265625 C2.04710937 13.14179688 2.02390625 14.05703125 2 15 C2.66 15 3.32 15 4 15 C4.03738281 15.7734375 4.07476563 16.546875 4.11328125 17.34375 C4.57860646 24.71596124 5.54565479 30.60801383 9.1875 37.125 C10.33487097 39.77277916 10.12940802 42.15302367 10 45 C9.34 45 8.68 45 8 45 C5.24925473 41.29247377 3.99034712 37.24822397 2.6484375 32.890625 C2.15908543 31.01259944 2.15908543 31.01259944 1 30 C-0.46560542 20.06645215 -0.09476088 10.01549596 0 0 Z " fill="#692526" transform="translate(24,126)"/>
<path d="M0 0 C3.44993533 2.67566007 3.96265014 5.81835659 5 9.9375 C6.1073586 14.76587381 6.1073586 14.76587381 8.55078125 18.95703125 C10.6825433 21.96218368 10.81971087 25.18008348 11.1875 28.75 C11.26935547 29.44738281 11.35121094 30.14476562 11.43554688 30.86328125 C11.63477133 32.57426776 11.81889929 34.28700037 12 36 C12.99 36 13.98 36 15 36 C14.34 37.32 13.68 38.64 13 40 C8.33916542 32.57518212 4.43511483 26.17908162 3.36328125 17.3203125 C3.08978284 14.76730673 3.08978284 14.76730673 1.375 11.875 C-0.5296423 7.89256611 -0.26034963 4.33916048 0 0 Z " fill="#694747" transform="translate(5,154)"/>
<path d="M0 0 C10.53463178 0.6161082 20.88118769 2.02366458 31.3125 3.5625 C32.93939544 3.79922489 34.5663483 4.03555552 36.19335938 4.27148438 C40.12958122 4.84312529 44.0649936 5.42005387 48 6 C48 6.66 48 7.32 48 8 C35.13 7.505 35.13 7.505 22 7 C21.67 6.01 21.34 5.02 21 4 C14.07 3.67 7.14 3.34 0 3 C0 2.01 0 1.02 0 0 Z " fill="#AE584D" transform="translate(52,104)"/>
<path d="M0 0 C0.33 0 0.66 0 1 0 C1.03440186 0.54712646 1.06880371 1.09425293 1.10424805 1.65795898 C2.16590401 17.42149261 4.19819786 32.28308189 12.1796875 46.21484375 C12.45039062 46.80394531 12.72109375 47.39304688 13 48 C12.67 48.66 12.34 49.32 12 50 C9.47411298 47.63707344 8.11179163 46.33537489 7 43 C6.34 43 5.68 43 5 43 C3.54815522 38.46298506 2.76490804 34.81938524 3 30 C2.34 30 1.68 30 1 30 C-0.25676377 20.01321644 -0.09367165 10.04368267 0 0 Z " fill="#AF8B8B" transform="translate(36,137)"/>
<path d="M0 0 C0.66 0 1.32 0 2 0 C2 3.63 2 7.26 2 11 C2.66 11.33 3.32 11.66 4 12 C3.5978125 13.11375 3.5978125 13.11375 3.1875 14.25 C1.54412127 19.43961704 0.28358224 24.71164116 -1 30 C-1.66 30 -2.32 30 -3 30 C-3.33 30.66 -3.66 31.32 -4 32 C-3.54050414 21.11470141 -2.07963287 10.68591229 0 0 Z " fill="#C7A8A1" transform="translate(115,113)"/>
<path d="M0 0 C2.15425887 0.96570225 3.76745516 1.74631472 5.375 3.5 C7.6393766 5.59019379 10.07651684 6.1554382 13 7 C13 7.66 13 8.32 13 9 C15.65228812 10.07525194 18.28368454 11.09456151 21 12 C22.02019573 12.9793879 23.02149805 13.97895449 24 15 C24.66 15.33 25.32 15.66 26 16 C26 16.66 26 17.32 26 18 C25.01 18 24.02 18 23 18 C23 18.66 23 19.32 23 20 C14.21249258 16.09900372 6.33564101 8.11625007 0 1 C0 0.67 0 0.34 0 0 Z " fill="#745554" transform="translate(35,214)"/>
<path d="M0 0 C-2.45714547 0.83698386 -4.91558857 1.66972424 -7.375 2.5 C-8.07367188 2.73847656 -8.77234375 2.97695312 -9.4921875 3.22265625 C-14.7734375 5 -14.7734375 5 -17 5 C-17.33 5.99 -17.66 6.98 -18 8 C-20.58072903 10.32265612 -21.45176068 11 -25 11 C-25 11.66 -25 12.32 -25 13 C-25.99 12.896875 -26.98 12.79375 -28 12.6875 C-32.30929663 12.63484057 -34.89762342 14.53678397 -38.30078125 17.00390625 C-38.86152344 17.33261719 -39.42226563 17.66132813 -40 18 C-40.66 17.67 -41.32 17.34 -42 17 C-11.87966483 -3.81751027 -11.87966483 -3.81751027 0 0 Z " fill="#836767" transform="translate(95,13)"/>
<path d="M0 0 C1.32 0 2.64 0 4 0 C2.87811159 3.08519311 1.5383537 5.86805649 -0.125 8.6875 C-2.16419941 11.65569437 -2.16419941 11.65569437 -2 14 C0.475 14.495 0.475 14.495 3 15 C3 15.66 3 16.32 3 17 C-10.6332574 17.55353075 -10.6332574 17.55353075 -17 14 C-17 13.67 -17 13.34 -17 13 C-8.42857143 12.85714286 -8.42857143 12.85714286 -5 14 C-4.87625 13.278125 -4.7525 12.55625 -4.625 11.8125 C-3.68370802 7.57668608 -1.99080702 3.83941354 0 0 Z " fill="#793532" transform="translate(49,88)"/>
<path d="M0 0 C4.22357456 1.64647822 7.07156701 4.76960441 10.1875 7.9375 C10.75758789 8.51290527 11.32767578 9.08831055 11.91503906 9.68115234 C25.02864047 23.0859214 25.02864047 23.0859214 27 29 C25.35 29.33 23.7 29.66 22 30 C21.60167969 29.24074219 21.20335937 28.48148438 20.79296875 27.69921875 C19.99826172 26.20841797 19.99826172 26.20841797 19.1875 24.6875 C18.66542969 23.70136719 18.14335937 22.71523438 17.60546875 21.69921875 C16.19633712 19.33009476 14.93457103 17.89395012 13 16 C12.32517578 14.83210938 12.32517578 14.83210938 11.63671875 13.640625 C9.71057881 10.53305794 7.44180406 8.28445182 4.8125 5.75 C3.19228295 4.18309482 1.58335288 2.60414738 0 1 C0 0.67 0 0.34 0 0 Z " fill="#B5B5B5" transform="translate(190,36)"/>
<path d="M0 0 C3.07536854 0.65900754 5.07735566 1.53867783 8 3 C7.67 6.96 7.34 10.92 7 15 C7.66 15 8.32 15 9 15 C8.814375 15.7425 8.62875 16.485 8.4375 17.25 C8.00796892 19.94990963 8.14877026 21.44631077 9 24 C11.31 24.33 13.62 24.66 16 25 C16 25.33 16 25.66 16 26 C12.04 26 8.08 26 4 26 C3.67 26.66 3.34 27.32 3 28 C3.99 20.08 4.98 12.16 6 4 C4.02 3.34 2.04 2.68 0 2 C0 1.34 0 0.68 0 0 Z " fill="#5F504F" transform="translate(86,215)"/>
<path d="M0 0 C0.99 0.33 1.98 0.66 3 1 C2.01 1.495 2.01 1.495 1 2 C0.19778906 4.57572159 0.19778906 4.57572159 -0.40234375 7.73046875 C-0.65306641 8.92736328 -0.90378906 10.12425781 -1.16210938 11.35742188 C-1.54592773 13.25331055 -1.54592773 13.25331055 -1.9375 15.1875 C-2.44661458 17.63932292 -2.95572917 20.09114583 -3.46484375 22.54296875 C-3.71476074 23.76161621 -3.96467773 24.98026367 -4.22216797 26.23583984 C-5.44728998 32.16456901 -6.7227832 38.08228566 -8 44 C-8.33 44 -8.66 44 -9 44 C-8.85936865 41.70800823 -8.71234057 39.41640814 -8.5625 37.125 C-8.48128906 35.84882812 -8.40007812 34.57265625 -8.31640625 33.2578125 C-8 30 -8 30 -7 28 C-6.84503604 26.48192714 -6.725082 24.96017614 -6.625 23.4375 C-6.23159099 19.02751191 -5.2150913 15.3164556 -3.69140625 11.1796875 C-2.97637293 8.92551467 -2.6674519 6.84969034 -2.4375 4.5 C-2.293125 3.345 -2.14875 2.19 -2 1 C-1.34 0.67 -0.68 0.34 0 0 Z " fill="#B9B9B9" transform="translate(162,48)"/>
<path d="M0 0 C0.66 0.33 1.32 0.66 2 1 C1.32453125 1.58007812 0.6490625 2.16015625 -0.046875 2.7578125 C-4.7765841 6.89972538 -8.78533573 10.59936403 -12 16 C-13.69185277 17.98608804 -15.00195518 19.00105685 -17.3125 20.25 C-20.925216 22.60246623 -23.33044083 25.65158386 -26 29 C-26 24.64441293 -23.36848068 22.49873639 -20.625 19.375 C-20.08423828 18.75197998 -19.54347656 18.12895996 -18.98632812 17.48706055 C-13.23791046 10.96786296 -7.01659093 5.15081561 0 0 Z " fill="#7B5D5E" transform="translate(51,31)"/>
<path d="M0 0 C1.32 0.66 2.64 1.32 4 2 C4 2.66 4 3.32 4 4 C4.99 4.33 5.98 4.66 7 5 C6.01 5.33 5.02 5.66 4 6 C4 6.66 4 7.32 4 8 C4.99 8 5.98 8 7 8 C7 8.66 7 9.32 7 10 C8.32 10 9.64 10 11 10 C11 9.34 11 8.68 11 8 C10.01 7.67 9.02 7.34 8 7 C9.75 6.3125 9.75 6.3125 12 6 C14.25 7.4375 14.25 7.4375 16 9 C14.02 9.99 14.02 9.99 12 11 C12.33 11.99 12.66 12.98 13 14 C9.10716762 12.56954422 5.70678139 10.75321733 2.1875 8.5625 C1.21167969 7.96566406 0.23585937 7.36882812 -0.76953125 6.75390625 C-1.50558594 6.17511719 -2.24164063 5.59632813 -3 5 C-3 4.01 -3 3.02 -3 2 C-2.01 2 -1.02 2 0 2 C0 1.34 0 0.68 0 0 Z " fill="#593536" transform="translate(61,230)"/>
<path d="M0 0 C0.33 0 0.66 0 1 0 C1.34280058 7.27499011 0.8795968 13.43603406 -1.27734375 20.3984375 C-1.97635729 22.91488625 -2.29582275 25.21467036 -2.5 27.8125 C-2.83091624 31.72716877 -3.98725406 34.58708297 -6 38 C-7.8702911 31.92155394 -6.88807893 27.20735978 -4.80078125 21.390625 C-3.5523394 17.66356934 -2.77349171 13.84925872 -2 10 C-1.34 10 -0.68 10 0 10 C0 6.7 0 3.4 0 0 Z " fill="#707271" transform="translate(221,134)"/>
<path d="M0 0 C7.09434233 -0.09733092 13.98194143 -0.10087193 21 1 C21.33 1.99 21.66 2.98 22 4 C13.73291925 5.50310559 13.73291925 5.50310559 10.0625 4.4375 C7.91135605 3.82551447 7.91135605 3.82551447 5.4375 4.625 C3 5 3 5 1.1875 3.6875 C0 2 0 2 0 0 Z M3 2 C4 4 4 4 4 4 Z " fill="#7B180D" transform="translate(52,107)"/>
<path d="M0 0 C2 2 2 2 2.1953125 5.4765625 C2.18201493 6.85950968 2.15816232 8.24238654 2.125 9.625 C2.11597656 10.33140625 2.10695312 11.0378125 2.09765625 11.765625 C2.07407603 13.51056098 2.03820461 15.25532295 2 17 C2.66 17 3.32 17 4 17 C4.02578125 17.60585937 4.0515625 18.21171875 4.078125 18.8359375 C4.47511745 24.70059863 5.68363469 29.34376864 8.16015625 34.67578125 C9.09284313 37.25693798 9.14942902 39.27653563 9 42 C1.02596058 30.03894088 -0.39815632 13.91335148 0 0 Z " fill="#B08A6A" transform="translate(1,136)"/>
<path d="M0 0 C0.99 0 1.98 0 3 0 C3 2.31 3 4.62 3 7 C-7.21548751 7.20430975 -16.95726488 7.2054634 -27 5 C-23.21866376 2.47910918 -22.33371138 3.16738958 -18 4 C-15.54245859 4.06578002 -13.08331222 4.08569162 -10.625 4.0625 C-9.37976563 4.05347656 -8.13453125 4.04445312 -6.8515625 4.03515625 C-5.91054687 4.02355469 -4.96953125 4.01195312 -4 4 C-3.67 3.34 -3.34 2.68 -3 2 C-2.34 2 -1.68 2 -1 2 C-1 2.66 -1 3.32 -1 4 C-0.01 4 0.98 4 2 4 C2 3.01 2 2.02 2 1 C1.34 0.67 0.68 0.34 0 0 Z " fill="#491D21" transform="translate(106,139)"/>
<path d="M0 0 C4.95 0 9.9 0 15 0 C15 8.22222222 15 8.22222222 13 12 C10.0384304 13.4807848 7.16493705 13.35314037 3.875 13.5625 C2.59367187 13.64628906 1.31234375 13.73007812 -0.0078125 13.81640625 C-0.99523437 13.87699219 -1.98265625 13.93757813 -3 14 C-0.18515955 11.18515955 2.2166247 11.37242958 6.125 10.875 C8.04699219 10.62363281 8.04699219 10.62363281 10.0078125 10.3671875 C10.99523437 10.24601562 11.98265625 10.12484375 13 10 C13.33 7.69 13.66 5.38 14 3 C9.05 2.67 4.1 2.34 -1 2 C-0.67 1.34 -0.34 0.68 0 0 Z " fill="#633A3B" transform="translate(115,33)"/>
<path d="M0 0 C0.99 0.33 1.98 0.66 3 1 C5.22818441 1.06937062 7.45834524 1.08457084 9.6875 1.0625 C10.86699219 1.05347656 12.04648437 1.04445312 13.26171875 1.03515625 C14.16535156 1.02355469 15.06898437 1.01195312 16 1 C16 1.66 16 2.32 16 3 C17.918125 2.9690625 17.918125 2.9690625 19.875 2.9375 C23.75 2.875 23.75 2.875 26 4 C27.70363822 4.22622081 29.41328701 4.40888473 31.125 4.5625 C32.03507812 4.64628906 32.94515625 4.73007813 33.8828125 4.81640625 C34.58148438 4.87699219 35.28015625 4.93757812 36 5 C36 5.66 36 6.32 36 7 C28.43585559 7.57692627 22.02643859 6.41155238 14.80078125 4.43164062 C9.65863959 3.05941207 5.28609084 2.62242208 0 3 C0 2.01 0 1.02 0 0 Z " fill="#560A0B" transform="translate(34,128)"/>
<path d="M0 0 C3.3753363 0.30893366 6.75019811 0.62278633 10.125 0.9375 C11.07632813 1.02451172 12.02765625 1.11152344 13.0078125 1.20117188 C17.70946481 1.64195178 22.35332502 2.13168195 27 3 C26.67 3.66 26.34 4.32 26 5 C23.79173622 5.02722517 21.58337362 5.04649729 19.375 5.0625 C18.14523438 5.07410156 16.91546875 5.08570313 15.6484375 5.09765625 C12.31237044 5.00836109 9.26994639 4.63169419 6 4 C4 3.66666667 2 3.33333333 0 3 C0 2.01 0 1.02 0 0 Z " fill="#400E15" transform="translate(76,139)"/>
<path d="M0 0 C6.93 0.33 13.86 0.66 21 1 C21 1.33 21 1.66 21 2 C25.29 2 29.58 2 34 2 C34.495 2.99 34.495 2.99 35 4 C37.3140622 4.73075648 39.64828869 5.40138258 42 6 C38.60667006 7.11084336 36.09652185 6.88651831 32.59765625 6.29296875 C31.54763428 6.11926758 30.4976123 5.94556641 29.41577148 5.76660156 C28.30919189 5.57549805 27.2026123 5.38439453 26.0625 5.1875 C23.80472692 4.81096145 21.54691476 4.4346572 19.2890625 4.05859375 C18.2052832 3.87538574 17.12150391 3.69217773 16.00488281 3.50341797 C12.32020467 2.88611164 8.63114476 2.31100813 4.9375 1.75 C3.95652344 1.60046875 2.97554687 1.4509375 1.96484375 1.296875 C1.31644531 1.19890625 0.66804688 1.1009375 0 1 C0 0.67 0 0.34 0 0 Z " fill="#6F4E4E" transform="translate(36,136)"/>
<path d="M0 0 C1.65 0.33 3.3 0.66 5 1 C5.70958481 15.0340106 5.70958481 15.0340106 2.0234375 21.046875 C0.08728036 24.74183137 -0.36347853 28.91286215 -1 33 C-2.32029286 29.25983908 -1.72135221 26.33408501 -1.00390625 22.484375 C-0.77509766 21.23398438 -0.54628906 19.98359375 -0.31054688 18.6953125 C-0.06137829 17.38017415 0.18797299 16.0650704 0.4375 14.75 C0.68370733 13.41941209 0.92915856 12.08868403 1.17382812 10.7578125 C1.77512196 7.50375177 2.38412249 4.25132662 3 1 C2.01 0.67 1.02 0.34 0 0 Z " fill="#B7B5B6" transform="translate(104,147)"/>
<path d="M0 0 C0.66 0 1.32 0 2 0 C2.33 11.22 2.66 22.44 3 34 C2.34 34 1.68 34 1 34 C0.93941406 32.98679688 0.87882813 31.97359375 0.81640625 30.9296875 C0.73193296 29.57811486 0.64728843 28.22655291 0.5625 26.875 C0.52318359 26.20984375 0.48386719 25.5446875 0.44335938 24.859375 C0.25100832 21.84094304 -0.01578941 18.91403543 -0.5625 15.9375 C-1.06748557 12.54688262 -0.87563879 9.53473346 -0.5625 6.125 C-0.46066406 4.97257812 -0.35882813 3.82015625 -0.25390625 2.6328125 C-0.17011719 1.76398438 -0.08632813 0.89515625 0 0 Z " fill="#8A573F" transform="translate(2,119)"/>
<path d="M0 0 C4.95 0.33 9.9 0.66 15 1 C14.5332314 7.30137613 13.99796233 13.006113 12 19 C11.67 19 11.34 19 11 19 C11 14.05 11 9.1 11 4 C7.37 3.34 3.74 2.68 0 2 C0 1.34 0 0.68 0 0 Z " fill="#9E4038" transform="translate(100,112)"/>
<path d="M0 0 C0.99 0.33 1.98 0.66 3 1 C2.44570312 1.39832031 1.89140625 1.79664063 1.3203125 2.20703125 C0.59585938 2.73683594 -0.12859375 3.26664063 -0.875 3.8125 C-1.59429687 4.33457031 -2.31359375 4.85664062 -3.0546875 5.39453125 C-5.23028655 7.03272777 -5.23028655 7.03272777 -7 10 C-8.66279327 11.0064275 -10.32983484 12.00585407 -12 13 C-13.36984198 14.29579647 -14.7151049 15.61992749 -16 17 C-16.66 16.67 -17.32 16.34 -18 16 C-13.42551113 8.84073897 -7.62253736 3.81126868 0 0 Z " fill="#662F30" transform="translate(69,48)"/>
<path d="M0 0 C3.46878158 3.34706994 6.32429889 6.93952398 9.21875 10.78125 C11.01517282 13.01889948 12.93649431 15.00889801 15 17 C10.96115115 17.46963359 9.45878506 17.35683282 6.1875 14.8125 C4.0117623 12.01512296 3.29802105 10.47691229 3 7 C2.34 7 1.68 7 1 7 C0.67 4.69 0.34 2.38 0 0 Z " fill="#775758" transform="translate(49,187)"/>
<path d="M0 0 C0.33 0 0.66 0 1 0 C1 3.3 1 6.6 1 10 C1.66 10 2.32 10 3 10 C3.27714844 10.62648437 3.55429687 11.25296875 3.83984375 11.8984375 C4.20207031 12.71570313 4.56429688 13.53296875 4.9375 14.375 C5.29714844 15.18710938 5.65679688 15.99921875 6.02734375 16.8359375 C6.6569903 18.23683785 7.31312642 19.62625284 8 21 C8.039992 22.99960012 8.04346799 25.00047242 8 27 C7.34 27 6.68 27 6 27 C0.03045792 19.47318607 -0.47954169 9.18233528 0 0 Z " fill="#6F3030" transform="translate(26,144)"/>
<path d="M0 0 C26.26666667 1.26666667 26.26666667 1.26666667 30 5 C10.09452202 5.39634801 10.09452202 5.39634801 5 2 C3.34450469 1.61500109 1.6777567 1.27206865 0 1 C0 0.67 0 0.34 0 0 Z " fill="#5E0A06" transform="translate(76,135)"/>
<path d="M0 0 C5.94 0.33 11.88 0.66 18 1 C18 1.66 18 2.32 18 3 C21.465 2.505 21.465 2.505 25 2 C25.99 3.32 26.98 4.64 28 6 C25.43663746 5.88553728 22.87486555 5.75880499 20.3125 5.625 C19.59126953 5.5940625 18.87003906 5.563125 18.12695312 5.53125 C14.00115723 5.30517899 10.79597094 4.76432452 7 3 C4.67251306 2.31320058 2.34013344 1.64238957 0 1 C0 0.67 0 0.34 0 0 Z " fill="#A51B0C" transform="translate(62,127)"/>
<path d="M0 0 C0.66 0.33 1.32 0.66 2 1 C1.34773438 1.6290625 0.69546875 2.258125 0.0234375 2.90625 C-4.72768778 7.55926945 -9.13209964 12.14119665 -12.94140625 17.6015625 C-13.29074219 18.06304687 -13.64007813 18.52453125 -14 19 C-14.33 19 -14.66 19 -15 19 C-15 17.02 -15 15.04 -15 13 C-13.68 12.67 -12.36 12.34 -11 12 C-11.33 11.01 -11.66 10.02 -12 9 C-9.34363346 6.05902276 -7.76535776 4.94133944 -4 4 C-1.77022004 2.02098426 -1.77022004 2.02098426 0 0 Z " fill="#754C4D" transform="translate(68,69)"/>
<path d="M0 0 C0.66 0 1.32 0 2 0 C2.40483194 6.36290205 0.92765429 11.73797427 -0.875 17.8125 C-1.27912109 19.24239258 -1.27912109 19.24239258 -1.69140625 20.70117188 C-3.73535839 27.73535839 -3.73535839 27.73535839 -6 30 C-5.44865606 24.7622326 -4.53524625 20.05728178 -3 15 C-1.31227377 10.02749731 -1.31227377 10.02749731 -1.57421875 4.94921875 C-1.71472656 4.30597656 -1.85523438 3.66273438 -2 3 C-1.34 2.01 -0.68 1.02 0 0 Z " fill="#B0AEAB" transform="translate(234,147)"/>
<path d="M0 0 C9.72395343 0.632723 19.34455651 1.72334958 29 3 C29 3.33 29 3.66 29 4 C19.27342548 4.11237377 9.69570954 3.92972557 0 3 C0 2.01 0 1.02 0 0 Z " fill="#AB7068" transform="translate(52,104)"/>
<path d="M0 0 C0.66 0 1.32 0 2 0 C0.50592885 4.7312253 0.50592885 4.7312253 -2 6.0625 C-2.66 6.371875 -3.32 6.68125 -4 7 C-4.26554688 7.58136719 -4.53109375 8.16273438 -4.8046875 8.76171875 C-6.40633702 11.76088599 -8.5699889 13.52255443 -11.125 15.75 C-12.03507813 16.54921875 -12.94515625 17.3484375 -13.8828125 18.171875 C-14.58148438 18.77515625 -15.28015625 19.3784375 -16 20 C-16 17 -16 17 -13.62890625 14.37109375 C-12.61413861 13.38558546 -11.59164611 12.40798351 -10.5625 11.4375 C-6.82510599 8.07641393 -6.82510599 8.07641393 -4 4 C-3.34 4 -2.68 4 -2 4 C-1.34 2.68 -0.68 1.36 0 0 Z " fill="#5D5D5D" transform="translate(179,188)"/>
<path d="M0 0 C0.33 0 0.66 0 1 0 C1.09038099 5.15171623 0.84681133 9.91913204 0 15 C0.66 15.33 1.32 15.66 2 16 C-0.75 22.75 -0.75 22.75 -3 25 C-3 22.36 -3 19.72 -3 17 C-6.63 16.67 -10.26 16.34 -14 16 C-14 15.67 -14 15.34 -14 15 C-10.04 15 -6.08 15 -2 15 C-1.34 10.05 -0.68 5.1 0 0 Z " fill="#997D7C" transform="translate(111,131)"/>
<path d="M0 0 C0.97839844 0.1546875 1.95679688 0.309375 2.96484375 0.46875 C7.88319154 1.17154787 12.81317992 1.36873273 17.77148438 1.60546875 C21.91608608 1.8218386 25.9122699 2.22507486 30 3 C30 3.33 30 3.66 30 4 C28.44539063 3.98259766 28.44539063 3.98259766 26.859375 3.96484375 C25.48958514 3.95546163 24.11979332 3.94636188 22.75 3.9375 C22.06808594 3.92912109 21.38617188 3.92074219 20.68359375 3.91210938 C17.30657446 3.89571608 14.22708361 3.94371232 11 5 C11 4.34 11 3.68 11 3 C7.04 3 3.08 3 -1 3 C-0.67 2.01 -0.34 1.02 0 0 Z " fill="#791A16" transform="translate(39,126)"/>
<path d="M0 0 C0.33 0 0.66 0 1 0 C1.10452045 5.77185149 1.08808374 11.3177849 0 17 C-0.33 17.33 -0.66 17.66 -1 18 C-1.27953219 20.0587768 -1.44734351 22.11728432 -1.62109375 24.1875 C-1.74613281 24.785625 -1.87117188 25.38375 -2 26 C-2.66 26.33 -3.32 26.66 -4 27 C-4.23341328 20.69784145 -3.39477733 15.13513544 -2 9 C-1.80921875 8.12988281 -1.6184375 7.25976562 -1.421875 6.36328125 C-0.95533903 4.2405426 -0.47871537 2.12002519 0 0 Z " fill="#AAABAC" transform="translate(124,65)"/>
<path d="M0 0 C1.97742906 3.95485813 0.87189815 8.79641155 0 13 C-1.42024962 15.7373788 -2.96163682 17.64804248 -5 20 C-5.85372062 17.60958225 -6.20940887 16.47238746 -5.16015625 14.10546875 C-4.58587891 13.06326172 -4.58587891 13.06326172 -4 12 C-3.44264149 10.11458151 -2.92331516 8.21760761 -2.4375 6.3125 C-1.10676157 1.10676157 -1.10676157 1.10676157 0 0 Z " fill="#5F6261" transform="translate(214,160)"/>
<path d="M0 0 C0.66 0.33 1.32 0.66 2 1 C2.47574438 3.54024004 2.84007547 6.00051464 3.125 8.5625 C3.21136719 9.27341797 3.29773438 9.98433594 3.38671875 10.71679688 C3.59934783 12.47689312 3.80072697 14.23834164 4 16 C4.99 16 5.98 16 7 16 C6.34 17.32 5.68 18.64 5 20 C3.63597957 17.7136988 2.28365726 15.42178251 0.9375 13.125 C0.54755859 12.47402344 0.15761719 11.82304687 -0.24414062 11.15234375 C-1.22444533 9.46934275 -2.11898432 7.73703801 -3 6 C-2.67 5.34 -2.34 4.68 -2 4 C-1.67 4.99 -1.34 5.98 -1 7 C-0.34 7 0.32 7 1 7 C0.67 4.69 0.34 2.38 0 0 Z " fill="#7A5758" transform="translate(13,174)"/>
<path d="M0 0 C0.66 0 1.32 0 2 0 C3.3805087 3.76668598 2.59568159 6.44789173 1.5625 10.25 C1.27503906 11.32765625 0.98757812 12.4053125 0.69140625 13.515625 C0.46324219 14.33546875 0.23507813 15.1553125 0 16 C0.66 16.33 1.32 16.66 2 17 C1.01 17.33 0.02 17.66 -1 18 C-1.2165625 16.6078125 -1.2165625 16.6078125 -1.4375 15.1875 C-1.92100111 11.99274889 -1.92100111 11.99274889 -3 9 C-2.44140625 6.73828125 -2.44140625 6.73828125 -1.5625 4.3125 C-1.13130859 3.10013672 -1.13130859 3.10013672 -0.69140625 1.86328125 C-0.46324219 1.24839844 -0.23507813 0.63351563 0 0 Z " fill="#625351" transform="translate(133,24)"/>
<path d="M0 0 C2 3 2 3 2.4375 5 C2.84133465 7.07100667 2.84133465 7.07100667 4.39453125 8.37109375 C6.15238756 10.15461219 7.13122232 11.82911918 8.25 14.0625 C8.78367187 15.10083984 8.78367187 15.10083984 9.328125 16.16015625 C9.54984375 16.76730469 9.7715625 17.37445313 10 18 C9.67 18.66 9.34 19.32 9 20 C6.47411298 17.63707344 5.11179163 16.33537489 4 13 C3.34 13 2.68 13 2 13 C0.54815522 8.46298506 -0.23509196 4.81938524 0 0 Z " fill="#8C5E61" transform="translate(39,167)"/>
<path d="M0 0 C4.89157798 1.2228945 7.34618634 2.6477456 10 7 C9.67 7.99 9.34 8.98 9 10 C9.66 10 10.32 10 11 10 C11.33 11.65 11.66 13.3 12 15 C7.47619711 10.75036698 3.61682339 6.04479113 0 1 C0 0.67 0 0.34 0 0 Z " fill="#704E51" transform="translate(19,195)"/>
<path d="M0 0 C0.33 0 0.66 0 1 0 C1.18451025 15.74487472 1.18451025 15.74487472 0 23 C0.66 23 1.32 23 2 23 C0.25 27.875 0.25 27.875 -2 29 C-1.85891477 25.85393539 -1.71123864 22.70821132 -1.5625 19.5625 C-1.52318359 18.68400391 -1.48386719 17.80550781 -1.44335938 16.90039062 C-1.17137332 11.23052738 -0.68222355 5.63551047 0 0 Z " fill="#979899" transform="translate(223,125)"/>
<path d="M0 0 C1.32 0 2.64 0 4 0 C5.51953125 1.609375 5.51953125 1.609375 6.8125 3.75 C7.25207031 4.44609375 7.69164062 5.1421875 8.14453125 5.859375 C9.15108861 8.37806648 8.91922387 9.49610186 8 12 C7.34 11.67 6.68 11.34 6 11 C6 10.34 6 9.68 6 9 C5.34 9 4.68 9 4 9 C4 8.34 4 7.68 4 7 C3.34 7 2.68 7 2 7 C1.34 4.69 0.68 2.38 0 0 Z " fill="#582629" transform="translate(41,181)"/>
<path d="M0 0 C1.41687119 4.25061356 0.19320039 6.71851625 -1 11 C0.32 10.67 1.64 10.34 3 10 C3 10.66 3 11.32 3 12 C4.65 11.34 6.3 10.68 8 10 C8 10.66 8 11.32 8 12 C8.66 12.33 9.32 12.66 10 13 C8.02090602 13.02686553 6.04171029 13.04633375 4.0625 13.0625 C2.96035156 13.07410156 1.85820313 13.08570313 0.72265625 13.09765625 C-2 13 -2 13 -3 12 C-2.96219927 10.35130683 -2.84529698 8.70405968 -2.6875 7.0625 C-2.60886719 6.16660156 -2.53023438 5.27070313 -2.44921875 4.34765625 C-2 2 -2 2 0 0 Z " fill="#87888B" transform="translate(118,208)"/>
<path d="M0 0 C7.92 3.96 7.92 3.96 16 8 C16 8.33 16 8.66 16 9 C14.35 9 12.7 9 11 9 C11 8.34 11 7.68 11 7 C7.37 6.67 3.74 6.34 0 6 C0 4.02 0 2.04 0 0 Z " fill="#6E5153" transform="translate(64,204)"/>
<path d="M0 0 C0.33 0 0.66 0 1 0 C2.47453547 5.09384979 1.44218332 8.47210264 -0.1640625 13.3203125 C-1.46054535 17.47632762 -2.22610393 21.72080999 -3 26 C-3.33 26 -3.66 26 -4 26 C-3.64390639 16.9011942 -2.87704025 8.70349911 0 0 Z " fill="#838484" transform="translate(126,158)"/>
<path d="M0 0 C6.6 0.33 13.2 0.66 20 1 C20 1.33 20 1.66 20 2 C18.35 2.33 16.7 2.66 15 3 C15 3.33 15 3.66 15 4 C9.01006953 4.3152595 5.36439644 3.68219822 0 1 C0 0.67 0 0.34 0 0 Z " fill="#7F2621" transform="translate(53,129)"/>
<path d="M0 0 C1.15837573 3.47512718 0.77265943 5.13670286 0.0625 8.6875 C-0.13214844 9.68136719 -0.32679687 10.67523438 -0.52734375 11.69921875 C-0.68332031 12.45847656 -0.83929688 13.21773437 -1 14 C-1.99 14 -2.98 14 -4 14 C-4.14285714 5.42857143 -4.14285714 5.42857143 -3 2 C-2.01 2 -1.02 2 0 2 C0 1.34 0 0.68 0 0 Z " fill="#6C5E5F" transform="translate(97,216)"/>
<path d="M0 0 C-0.66 1.98 -1.32 3.96 -2 6 C-2.66 6 -3.32 6 -4 6 C-4.19335938 6.85464844 -4.38671875 7.70929688 -4.5859375 8.58984375 C-4.97652344 10.24693359 -4.97652344 10.24693359 -5.375 11.9375 C-5.63023438 13.03964844 -5.88546875 14.14179687 -6.1484375 15.27734375 C-6.42945313 16.17582031 -6.71046875 17.07429688 -7 18 C-7.66 18.33 -8.32 18.66 -9 19 C-8.67 16.36 -8.34 13.72 -8 11 C-7.34 11 -6.68 11 -6 11 C-5.94392578 10.06027344 -5.94392578 10.06027344 -5.88671875 9.1015625 C-5.78810547 7.87566406 -5.78810547 7.87566406 -5.6875 6.625 C-5.62949219 5.81289062 -5.57148438 5.00078125 -5.51171875 4.1640625 C-4.77930591 1.06668303 -3.17720825 0 0 0 Z " fill="#573030" transform="translate(20,74)"/>
<path d="M0 0 C3.3 0 6.6 0 10 0 C10 2 10 2 8.6875 3.625 C7 5 7 5 4 5 C3.67 4.34 3.34 3.68 3 3 C3 3.99 3 4.98 3 6 C1.68 5.67 0.36 5.34 -1 5 C-0.67 3.35 -0.34 1.7 0 0 Z " fill="#6D0B06" transform="translate(42,105)"/>
<path d="M0 0 C0.33 0 0.66 0 1 0 C2.287 8.437 2.287 8.437 1 13 C0.649375 14.258125 0.29875 15.51625 -0.0625 16.8125 C-0.371875 17.864375 -0.68125 18.91625 -1 20 C-1.66 20 -2.32 20 -3 20 C-3.125 12.25 -3.125 12.25 -2 10 C-1.34 10 -0.68 10 0 10 C0 6.7 0 3.4 0 0 Z " fill="#A0A0A0" transform="translate(226,128)"/>
<path d="M0 0 C1.32 0 2.64 0 4 0 C4 0.66 4 1.32 4 2 C7.63 2.33 11.26 2.66 15 3 C15 3.33 15 3.66 15 4 C13.35 4 11.7 4 10 4 C10.33 5.65 10.66 7.3 11 9 C9.35 8.67 7.7 8.34 6 8 C6.33 7.01 6.66 6.02 7 5 C6.21625 4.731875 5.4325 4.46375 4.625 4.1875 C2 3 2 3 0 0 Z " fill="#491616" transform="translate(74,237)"/>
<path d="M0 0 C0.96661363 3.12180401 0.98988909 5.52083795 0.5625 8.75 C0.46066406 9.54921875 0.35882813 10.3484375 0.25390625 11.171875 C0.17011719 11.77515625 0.08632812 12.3784375 0 13 C-0.33 13 -0.66 13 -1 13 C-1 11.35 -1 9.7 -1 8 C-2.33804688 7.92652344 -2.33804688 7.92652344 -3.703125 7.8515625 C-4.87359375 7.77679688 -6.0440625 7.70203125 -7.25 7.625 C-8.41015625 7.55539063 -9.5703125 7.48578125 -10.765625 7.4140625 C-14 7 -14 7 -18 5 C-12.72 5 -7.44 5 -2 5 C-1.34 3.35 -0.68 1.7 0 0 Z " fill="#862920" transform="translate(110,131)"/>
<path d="M0 0 C0.66 0.33 1.32 0.66 2 1 C0.2725597 2.5852517 -1.45687957 4.16822626 -3.1875 5.75 C-4.15042969 6.63171875 -5.11335938 7.5134375 -6.10546875 8.421875 C-7.93452332 10.05099243 -9.80856898 11.63209101 -11.73828125 13.140625 C-14.19351095 14.97559113 -14.19351095 14.97559113 -16 18 C-16.66 18 -17.32 18 -18 18 C-16.41092475 13.85074796 -13.36467701 11.31591806 -10.125 8.4375 C-9.59519531 7.95603516 -9.06539062 7.47457031 -8.51953125 6.97851562 C-5.77768026 4.50540685 -3.00076351 2.15272165 0 0 Z " fill="#A69191" transform="translate(51,31)"/>
<path d="M0 0 C1.134375 0.020625 2.26875 0.04125 3.4375 0.0625 C3.4375 0.3925 3.4375 0.7225 3.4375 1.0625 C1.7875 1.0625 0.1375 1.0625 -1.5625 1.0625 C-1.5625 1.7225 -1.5625 2.3825 -1.5625 3.0625 C-9.8125 3.0625 -18.0625 3.0625 -26.5625 3.0625 C-26.5625 2.7325 -26.5625 2.4025 -26.5625 2.0625 C-25.57068726 2.02491577 -25.57068726 2.02491577 -24.55883789 1.98657227 C-21.58067695 1.87096898 -18.6028608 1.74808246 -15.625 1.625 C-14.06362305 1.56602539 -14.06362305 1.56602539 -12.47070312 1.50585938 C-10.98666992 1.44301758 -10.98666992 1.44301758 -9.47265625 1.37890625 C-8.09799194 1.32391968 -8.09799194 1.32391968 -6.69555664 1.26782227 C-3.44837406 0.95525725 -3.83195481 0.06722728 0 0 Z " fill="#595B5B" transform="translate(129.5625,237.9375)"/>
<path d="M0 0 C8.25 0 16.5 0 25 0 C25 0.33 25 0.66 25 1 C18.4 1.33 11.8 1.66 5 2 C5 2.66 5 3.32 5 4 C2.525 3.01 2.525 3.01 0 2 C0 1.34 0 0.68 0 0 Z " fill="#837C7D" transform="translate(92,242)"/>
<path d="M0 0 C0.33 0 0.66 0 1 0 C1.38750039 8.2236194 0.58716898 15.1768938 -2 23 C-2.33 23 -2.66 23 -3 23 C-2.67 18.71 -2.34 14.42 -2 10 C-1.34 10 -0.68 10 0 10 C0 6.7 0 3.4 0 0 Z " fill="#78797A" transform="translate(221,134)"/>
<path d="M0 0 C1.32 0 2.64 0 4 0 C2.43358249 4.30764815 0.31663844 8.06171464 -2 12 C-2.33 12 -2.66 12 -3 12 C-3.24043967 7.91252557 -2.47229757 4.81065253 -1 1 C-0.67 0.67 -0.34 0.34 0 0 Z " fill="#6B4041" transform="translate(49,88)"/>
<path d="M0 0 C1.45606519 4.52092968 0.27032841 7.51648796 -1 12 C-1.99 12 -2.98 12 -4 12 C-3.28571429 3.42857143 -3.28571429 3.42857143 0 0 Z " fill="#6F5151" transform="translate(23,60)"/>
<path d="M0 0 C2.03833424 1.2739589 4.03852126 2.61061923 6 4 C6 4.66 6 5.32 6 6 C0.87160006 7.81975482 -3.17684382 5.8599099 -8 4 C-5.33333333 3.33333333 -2.66666667 2.66666667 0 2 C0 1.34 0 0.68 0 0 Z " fill="#543134" transform="translate(92,245)"/>
<path d="M0 0 C1.32 0.66 2.64 1.32 4 2 C4 2.66 4 3.32 4 4 C4.99 4.33 5.98 4.66 7 5 C2.545 5.495 2.545 5.495 -2 6 C-2.33 4.68 -2.66 3.36 -3 2 C-2.01 2 -1.02 2 0 2 C0 1.34 0 0.68 0 0 Z " fill="#512925" transform="translate(61,230)"/>
<path d="M0 0 C0.33 0 0.66 0 1 0 C0.22095672 10.55808656 0.22095672 10.55808656 -2 15 C-3.54363098 10.88365073 -2.73840234 7.22903156 -2 3 C-1.34 2.01 -0.68 1.02 0 0 Z " fill="#858686" transform="translate(142,78)"/>
<path d="M0 0 C4.82029598 3.85623679 4.82029598 3.85623679 5.33203125 7.11328125 C5.3145776 9.07856214 5.16596091 11.04166127 5 13 C4.34 13 3.68 13 3 13 C3.33 11.35 3.66 9.7 4 8 C3.01 8 2.02 8 1 8 C0.67 5.36 0.34 2.72 0 0 Z " fill="#582C2E" transform="translate(16,182)"/>
<path d="M0 0 C0.33 0.66 0.66 1.32 1 2 C3.3140622 2.73075648 5.64828869 3.40138258 8 4 C4.34606463 5.26823485 1.50929974 4.75715321 -2.25 4.0625 C-3.32765625 3.86785156 -4.4053125 3.67320312 -5.515625 3.47265625 C-6.33546875 3.31667969 -7.1553125 3.16070312 -8 3 C-8 2.34 -8 1.68 -8 1 C-2.25 0 -2.25 0 0 0 Z " fill="#5F393B" transform="translate(70,138)"/>
<path d="M0 0 C1.35439668 2.70879335 1.06501451 5.00933268 1 8 C-1.31 9.32 -3.62 10.64 -6 12 C-4.68139111 7.38486888 -2.78644563 3.90102388 0 0 Z " fill="#997A7B" transform="translate(19,66)"/>
<path d="M0 0 C4.95 0 9.9 0 15 0 C15.33 0.66 15.66 1.32 16 2 C9.9942956 3.09194625 5.7712521 3.09863713 0 1 C0 0.67 0 0.34 0 0 Z " fill="#8D150C" transform="translate(58,109)"/>
<path d="M0 0 C3.07536854 0.65900754 5.07735566 1.53867783 8 3 C7.67 6.63 7.34 10.26 7 14 C6.67 14 6.34 14 6 14 C6 10.7 6 7.4 6 4 C4.02 3.34 2.04 2.68 0 2 C0 1.34 0 0.68 0 0 Z " fill="#503534" transform="translate(86,215)"/>
<path d="M0 0 C0.33 0 0.66 0 1 0 C1.144375 1.0725 1.28875 2.145 1.4375 3.25 C1.89433176 6.78472598 1.89433176 6.78472598 2.625 9.3125 C3 11 3 11 2 13 C1.34 13 0.68 13 0 13 C-0.33 13.66 -0.66 14.32 -1 15 C-0.67 10.05 -0.34 5.1 0 0 Z " fill="#BAA4A3" transform="translate(112,130)"/>
<path d="M0 0 C1.32 0.33 2.64 0.66 4 1 C0.88983545 4.28788824 -2.01618925 6.83735988 -6 9 C-6.33 7.68 -6.66 6.36 -7 5 C-5.5459375 4.5978125 -5.5459375 4.5978125 -4.0625 4.1875 C-3.051875 3.795625 -2.04125 3.40375 -1 3 C-0.67 2.01 -0.34 1.02 0 0 Z " fill="#734C4E" transform="translate(76,60)"/>
<path d="M0 0 C1.32 0.33 2.64 0.66 4 1 C4 1.66 4 2.32 4 3 C4.66 3.33 5.32 3.66 6 4 C5.67 4.33 5.34 4.66 5 5 C5.66 5.33 6.32 5.66 7 6 C7 6.66 7 7.32 7 8 C5.68 8 4.36 8 3 8 C3 7.34 3 6.68 3 6 C2.01 6 1.02 6 0 6 C0 5.34 0 4.68 0 4 C0.66 3.67 1.32 3.34 2 3 C1.34 2.67 0.68 2.34 0 2 C0 1.34 0 0.68 0 0 Z " fill="#411416" transform="translate(65,232)"/>
<path d="M0 0 C0 4.38968456 -2.12805101 5.76905739 -5 9 C-5.66 8.67 -6.32 8.34 -7 8 C-4.53846154 2.33846154 -4.53846154 2.33846154 -1.8125 0.625 C-1.214375 0.41875 -0.61625 0.2125 0 0 Z " fill="#320C0E" transform="translate(36,49)"/>
<path d="M0 0 C0.33 0 0.66 0 1 0 C1.21192221 5.19209404 0.5912689 9.126739 -1 14 C-3 11 -3 11 -2.79296875 8.5546875 C-2.59316406 7.67039062 -2.39335937 6.78609375 -2.1875 5.875 C-1.99542969 4.98554687 -1.80335938 4.09609375 -1.60546875 3.1796875 C-1 1 -1 1 0 0 Z " fill="#856E70" transform="translate(131,35)"/>
<path d="M0 0 C2.97 0.495 2.97 0.495 6 1 C6 1.66 6 2.32 6 3 C6.99 3.33 7.98 3.66 9 4 C8.67 4.99 8.34 5.98 8 7 C4.46399535 5.08864614 2.21027154 3.37357234 0 0 Z " fill="#401B1C" transform="translate(37,214)"/>
<path d="M0 0 C3.78873666 0.85782717 7.55151756 1.77733213 11.3125 2.75 C11.3125 3.08 11.3125 3.41 11.3125 3.75 C-0.20914009 2.78644647 -0.20914009 2.78644647 -5.6875 1.75 C-2.6875 -0.25 -2.6875 -0.25 0 0 Z " fill="#7A5D61" transform="translate(84.6875,142.25)"/>
<path d="M0 0 C0.99 0 1.98 0 3 0 C3 1.98 3 3.96 3 6 C0.03 5.67 -2.94 5.34 -6 5 C-6 4.67 -6 4.34 -6 4 C-4.35 4 -2.7 4 -1 4 C-0.67 2.68 -0.34 1.36 0 0 Z " fill="#611315" transform="translate(39,96)"/>
<path d="M0 0 C2.56165861 1.4513836 4.8825934 2.94367243 7 5 C7.9375 8.8125 7.9375 8.8125 8 12 C6.66666667 10.33333333 5.33333333 8.66666667 4 7 C3.2575 6.113125 2.515 5.22625 1.75 4.3125 C0 2 0 2 0 0 Z " fill="#959595" transform="translate(203,50)"/>
<path d="M0 0 C1.65 0 3.3 0 5 0 C1.81404865 2.63978826 -1.30970546 5.10498388 -5 7 C-5.66 6.67 -6.32 6.34 -7 6 C-7 5.01 -7 4.02 -7 3 C-4.69 2.34 -2.38 1.68 0 1 C0 0.67 0 0.34 0 0 Z " fill="#7D5E61" transform="translate(87,54)"/>
<path d="M0 0 C3.40077179 0.07018478 6.6778746 0.24035136 10 1 C12.125 3.5625 12.125 3.5625 13 6 C12.34 5.731875 11.68 5.46375 11 5.1875 C7.35060933 3.74294953 3.67754567 2.37128822 0 1 C0 0.67 0 0.34 0 0 Z " fill="#9E9E9E" transform="translate(166,49)"/>
<path d="M0 0 C4.54805635 -0.17835515 7.8794254 0.00214565 12 2 C12 2.33 12 2.66 12 3 C7.45194365 3.17835515 4.1205746 2.99785435 0 1 C0 0.67 0 0.34 0 0 Z " fill="#A7453D" transform="translate(67,131)"/>
<path d="M0 0 C0.33 0 0.66 0 1 0 C1 3.3 1 6.6 1 10 C-1.31 9.67 -3.62 9.34 -6 9 C-6 8.67 -6 8.34 -6 8 C-4.35 8 -2.7 8 -1 8 C-0.67 5.36 -0.34 2.72 0 0 Z " fill="#969192" transform="translate(96,208)"/>
<path d="M0 0 C0.33 0.66 0.66 1.32 1 2 C1.66 2.33 2.32 2.66 3 3 C2.690625 3.886875 2.38125 4.77375 2.0625 5.6875 C1.1709329 8.46709155 0.50622993 11.13136375 0 14 C-0.33 14 -0.66 14 -1 14 C-0.67 9.38 -0.34 4.76 0 0 Z " fill="#BCBFBA" transform="translate(116,122)"/>
<path d="M0 0 C0.33 0 0.66 0 1 0 C1 1.65 1 3.3 1 5 C1.99 5.33 2.98 5.66 4 6 C3.34 7.98 2.68 9.96 2 12 C-0.13586678 8.79619983 -0.23132175 7.98060033 -0.125 4.3125 C-0.10695312 3.50425781 -0.08890625 2.69601563 -0.0703125 1.86328125 C-0.04710937 1.24839844 -0.02390625 0.63351563 0 0 Z " fill="#5B5D5C" transform="translate(202,96)"/>
<path d="M0 0 C2.60608273 2.5162178 4.89381685 5.05134359 7 8 C6.67 8.66 6.34 9.32 6 10 C3.5625 8.9375 3.5625 8.9375 1 7 C0.1875 3.3125 0.1875 3.3125 0 0 Z " fill="#B49B9B" transform="translate(49,187)"/>
<path d="M0 0 C3.74525799 3.74525799 3.68909949 7.98270909 4 13 C1.08410391 8.62615587 -0.30254716 5.29457529 0 0 Z " fill="#978285" transform="translate(6,165)"/>
<path d="M0 0 C3.96 0 7.92 0 12 0 C12 0.33 12 0.66 12 1 C11.2575 1.144375 10.515 1.28875 9.75 1.4375 C7.07319309 1.91956351 7.07319309 1.91956351 4.875 2.75 C4.25625 2.8325 3.6375 2.915 3 3 C2.01 2.01 1.02 1.02 0 0 Z " fill="#902F26" transform="translate(61,130)"/>
<path d="M0 0 C0.66 1.32 1.32 2.64 2 4 C1.525625 4.45375 1.05125 4.9075 0.5625 5.375 C-1.09027808 6.93258204 -1.09027808 6.93258204 -2 9 C-2.66 9 -3.32 9 -4 9 C-3.67 7.02 -3.34 5.04 -3 3 C-2.34 3 -1.68 3 -1 3 C-0.67 2.01 -0.34 1.02 0 0 Z " fill="#561F22" transform="translate(51,62)"/>
<path d="M0 0 C3 3.625 3 3.625 3 7 C3.66 7 4.32 7 5 7 C4.67 7.99 4.34 8.98 4 10 C4 9.34 4 8.68 4 8 C2.68 7.67 1.36 7.34 0 7 C0 4.69 0 2.38 0 0 Z " fill="#471D20" transform="translate(21,189)"/>
<path d="M0 0 C0 0.66 0 1.32 0 2 C-3.3125 3.625 -3.3125 3.625 -7 5 C-7.99 4.34 -8.98 3.68 -10 3 C-3.375 0 -3.375 0 0 0 Z " fill="#511C1B" transform="translate(79,44)"/>
<path d="M0 0 C0.33 0 0.66 0 1 0 C2.20577428 4.94367454 1.6290678 8.20862412 0 13 C-0.33 13 -0.66 13 -1 13 C-1.0272415 11.58344207 -1.04650467 10.16672955 -1.0625 8.75 C-1.07410156 7.96109375 -1.08570312 7.1721875 -1.09765625 6.359375 C-1.00385306 4.09308998 -0.63241063 2.1711105 0 0 Z " fill="#8D908F" transform="translate(126,158)"/>
<path d="M0 0 C2.31 0.33 4.62 0.66 7 1 C6.67 1.99 6.34 2.98 6 4 C3.03 3.505 3.03 3.505 0 3 C0 2.01 0 1.02 0 0 Z " fill="#461C1D" transform="translate(76,139)"/>
<path d="M0 0 C0.66 0 1.32 0 2 0 C2 0.66 2 1.32 2 2 C2.66 2.33 3.32 2.66 4 3 C2.35 4.32 0.7 5.64 -1 7 C-0.67 4.69 -0.34 2.38 0 0 Z " fill="#4D1C1C" transform="translate(63,68)"/>
<path d="M0 0 C0.66 0.33 1.32 0.66 2 1 C1.04882866 2.1725131 0.08882991 3.33787015 -0.875 4.5 C-1.40867187 5.1496875 -1.94234375 5.799375 -2.4921875 6.46875 C-2.98976562 6.9740625 -3.48734375 7.479375 -4 8 C-4.66 8 -5.32 8 -6 8 C-4.55746343 4.63408134 -2.66735273 2.48952921 0 0 Z " fill="#C0ACAE" transform="translate(39,41)"/>
</svg>
